<svg width="384" height="376" viewBox="0 0 384 376" fill="none" xmlns="http://www.w3.org/2000/svg">
<path d="M380.447 345.458C380.447 345.458 311.7 307.53 269.032 307.53C217.829 307.53 168.072 324.435 149.189 330.017C99.6114 344.663 3.55334 345.458 3.55334 345.458H380.447Z" fill="#DBDBDB"/>
<path d="M3.55334 345.458C3.55334 345.458 42.6051 323.391 86.7102 323.391C117.494 323.391 161.707 327.963 203.303 335.456C219.15 338.313 301.638 345.458 301.638 345.458H3.55334Z" fill="#C7C7C7"/>
<path d="M217.186 231.148C221.9 231.148 339.502 230.326 372.67 230.326C374.992 230.326 372.054 226.307 370.777 226.03C366.688 225.137 362.439 225.084 358.278 224.655C354.183 224.269 350.17 223.263 346.377 221.672C343.118 220.297 339.85 218.699 336.315 218.1C329.476 217.029 323.467 220.779 317.057 222.378C315.112 222.95 313.069 223.11 311.06 222.845C309.05 222.58 307.118 221.898 305.388 220.842C302.424 219.056 299.727 216.93 296.629 215.359C290.697 212.434 284.226 210.766 277.62 210.459C271.014 210.152 264.416 211.212 258.238 213.572C255.292 214.705 252.473 216.145 249.828 217.868C246.694 219.931 243.998 222.557 240.855 224.593C233.891 229.058 225.275 227.629 217.686 230.21C217.249 230.38 216.776 231.148 217.186 231.148Z" fill="#EBEBEB"/>
<path d="M242.194 62.0222C248.444 62.0222 353.242 62.7099 359.831 62.5045C360.305 62.5045 360.555 61.79 360.081 61.5578C355.93 59.5038 351.225 59.9146 346.903 58.459C344.368 57.5659 342.805 55.9406 341.047 54.0384C339.585 52.3755 337.7 51.1409 335.591 50.4662C333.662 49.8896 331.615 49.8281 329.654 50.2876C327.529 50.7877 325.681 52.0111 323.655 52.7792C318.619 54.6814 313.726 52.8685 310.128 49.1445C307.164 46.0724 304.245 43.17 300.218 41.5178C298.571 40.7755 296.789 40.3797 294.983 40.3552C293.177 40.3306 291.385 40.6777 289.719 41.3749C285.871 43.1164 283.237 46.6171 279.621 48.7247C275.344 51.2342 270.22 50.6359 265.497 51.4039C260.774 52.1719 257.14 56.137 252.997 58.4322C251.648 59.3039 250.085 59.7888 248.479 59.8342C247.587 59.8342 246.64 59.5574 245.73 59.4502C244.301 59.2716 242.944 59.3073 241.98 60.504C241.739 60.7898 241.783 62.0222 242.194 62.0222Z" fill="#EBEBEB"/>
<path d="M24.1506 86.3935C28.695 86.3935 105.218 86.9025 110.031 86.7417C110.379 86.7417 110.566 86.2238 110.218 86.0541C107.191 84.5538 103.745 84.8574 100.593 83.7947C98.7453 83.1695 97.6025 81.955 96.3169 80.5708C95.2499 79.3572 93.8737 78.4559 92.3349 77.9631C90.9282 77.5397 89.435 77.4935 88.0048 77.8291C86.5074 78.3316 85.0432 78.9281 83.621 79.6152C79.9426 80.9994 76.3714 79.6867 73.7465 76.9361C71.577 74.6945 69.4521 72.578 66.5058 71.3724C65.3051 70.8278 64.005 70.5371 62.6868 70.5187C61.3686 70.5003 60.0608 70.7544 58.8454 71.2652C56.033 72.5334 54.1135 75.0964 51.4707 76.6235C48.3459 78.4096 44.6139 78.0167 41.1587 78.5703C37.7035 79.124 35.034 82.0979 32.0074 83.7947C31.0234 84.4299 29.8836 84.7821 28.7129 84.8128C28.0387 84.7532 27.3681 84.6578 26.704 84.527C26.2211 84.3945 25.7112 84.3969 25.2296 84.5339C24.7479 84.6709 24.313 84.9372 23.972 85.3039C23.7935 85.5004 23.8292 86.3935 24.1506 86.3935Z" fill="#EBEBEB"/>
<path d="M285.04 182.253C289.585 182.253 366.117 182.762 370.92 182.602C371.268 182.602 371.456 182.084 371.108 181.914C368.081 180.414 364.644 180.717 361.492 179.654C359.635 179.029 358.501 177.815 357.207 176.431C356.142 175.214 354.765 174.312 353.225 173.823C351.818 173.399 350.325 173.353 348.894 173.689C347.397 174.191 345.933 174.788 344.511 175.475C340.832 176.859 337.261 175.546 334.636 172.796C332.476 170.554 330.342 168.438 327.404 167.232C326.202 166.687 324.901 166.397 323.581 166.378C322.261 166.36 320.952 166.614 319.735 167.125C316.932 168.393 315.003 170.956 312.369 172.483C309.244 174.314 305.504 173.876 302.048 174.43C298.593 174.984 295.95 177.886 292.924 179.565C291.936 180.199 290.794 180.551 289.62 180.583C288.946 180.524 288.276 180.428 287.612 180.297C287.119 180.167 286.6 180.177 286.113 180.325C285.626 180.473 285.189 180.754 284.853 181.137C284.71 181.36 284.746 182.253 285.04 182.253Z" fill="#EBEBEB"/>
<path d="M117.2 114.024C117.289 114.274 237.81 114.024 236.293 114.024C235.596 114.024 237.346 112.98 236.668 112.649C232.739 110.702 228.454 110.649 224.168 110.256C221.643 110.146 219.164 109.539 216.874 108.47C214.597 107.282 213.187 105.219 211.571 103.308C209.086 100.365 205.892 98.1048 202.291 96.7406C198.69 95.3764 194.801 94.9534 190.991 95.5115C182.42 96.8511 175.67 103.379 167.082 104.585C161.921 105.308 157.046 103.308 152.011 102.602C148.113 102.07 144.147 102.796 140.69 104.674C138.012 106.023 135.458 107.157 132.387 107.353C130.021 107.523 127.655 107.255 125.244 107.228C121.374 107.302 117.663 108.785 114.807 111.399C114.477 111.765 113.263 114.024 117.2 114.024Z" fill="#EBEBEB"/>
<path d="M43.0693 345.154H37.7125C35.7874 345.154 33.9411 344.389 32.5799 343.028C31.2186 341.666 30.4539 339.819 30.4539 337.894V305.092L37.7125 297.832H43.0693C44.9944 297.832 46.8407 298.596 48.2019 299.958C49.5632 301.32 50.3279 303.166 50.3279 305.092V337.894C50.3279 339.819 49.5632 341.666 48.2019 343.028C46.8407 344.389 44.9944 345.154 43.0693 345.154Z" fill="#A6A6A6"/>
<path d="M173.742 345.154H179.099C181.024 345.154 182.87 344.389 184.231 343.028C185.593 341.666 186.357 339.819 186.357 337.894V305.092L179.099 297.832H173.742C171.817 297.832 169.971 298.596 168.609 299.958C167.248 301.32 166.483 303.166 166.483 305.092V337.894C166.483 339.819 167.248 341.666 168.609 343.028C169.971 344.389 171.817 345.154 173.742 345.154Z" fill="#A6A6A6"/>
<path d="M195.732 277.479C195.455 289.982 194.652 297.858 194.652 297.858C194.652 297.858 165.233 309.146 108.406 310.924C51.5868 309.137 22.1686 297.858 22.1686 297.858C22.1686 297.858 21.3561 289.946 21.0793 277.479C21.0168 274.55 20.9811 271.37 20.999 267.986C21.0972 238.024 24.8738 191.791 44.3283 159.186H172.483C191.946 191.791 195.696 238.024 195.821 267.986C195.83 271.335 195.794 274.55 195.732 277.479Z" fill="#DBDBDB"/>
<path d="M26.829 201.105C25.9362 204.722 25.0434 208.473 24.3738 212.286C24.2897 212.76 24.0795 213.203 23.7652 213.568C23.451 213.932 23.0444 214.205 22.5882 214.358H22.4721C21.3025 213.778 20.0793 213.063 19.7936 212.51C19.2312 211.384 21.7132 202.883 22.6774 201.516C23.6417 200.15 26.829 201.105 26.829 201.105Z" fill="#A6A6A6"/>
<path d="M7.54431 195.292C7.78537 198.98 9.04424 202.686 12.2048 204.82C15.1869 206.68 18.3943 208.15 21.749 209.196C23.24 209.714 23.8739 207.348 22.4008 206.839C19.7759 205.963 17.2334 204.857 14.8029 203.535C11.6334 201.748 10.2228 198.891 9.9817 195.292C9.88349 193.729 7.43717 193.72 7.54431 195.292Z" fill="#A6A6A6"/>
<path d="M16.4457 193.14C16.4457 194.661 15.9946 196.148 15.1496 197.412C14.3045 198.677 13.1034 199.663 11.6982 200.244C10.2931 200.826 8.74699 200.978 7.25558 200.68C5.76418 200.383 4.39448 199.65 3.31977 198.573C2.24506 197.497 1.51364 196.126 1.21803 194.634C0.922433 193.142 1.07594 191.596 1.65913 190.191C2.24232 188.786 3.22899 187.586 4.49431 186.742C5.75963 185.898 7.24674 185.449 8.76749 185.45C9.77656 185.45 10.7757 185.649 11.7079 186.036C12.64 186.422 13.4869 186.989 14.2 187.703C14.9131 188.417 15.4785 189.265 15.8638 190.198C16.2491 191.131 16.4469 192.13 16.4457 193.14Z" fill="#A6A6A6"/>
<path d="M175.322 161.49H41.498C39.141 161.49 37.2571 157.248 37.9267 155.596C38.5963 153.944 64.5326 141.691 108.37 141.691C152.207 141.691 178.117 153.953 178.822 155.596C179.527 157.239 177.715 161.49 175.322 161.49Z" fill="#EBEBEB"/>
<path d="M55.4159 269.71C56.9432 263.361 53.0359 256.976 46.6886 255.448C40.3413 253.92 33.9576 257.828 32.4302 264.177C30.9029 270.526 34.8102 276.912 41.1575 278.439C47.5048 279.967 53.8885 276.059 55.4159 269.71Z" fill="#A6A6A6"/>
<path d="M54.0007 268.594C54.9074 263.025 51.1291 257.776 45.5615 256.869C39.9939 255.962 34.7454 259.741 33.8387 265.31C32.932 270.879 36.7103 276.129 42.2779 277.036C47.8455 277.943 53.0939 274.163 54.0007 268.594Z" fill="#EBEBEB"/>
<path d="M32.0967 243.373C34.1323 242.168 38.7035 248.107 36.3018 249.955C33.9002 251.804 28.8558 245.302 32.0967 243.373Z" fill="#EBEBEB"/>
<path d="M175.976 278.364C182.283 276.676 186.028 270.193 184.34 263.885C182.653 257.577 176.172 253.831 169.865 255.519C163.559 257.207 159.814 263.69 161.502 269.998C163.189 276.306 169.67 280.052 175.976 278.364Z" fill="#A6A6A6"/>
<path d="M174.607 277.022C180.171 276.089 183.925 270.822 182.993 265.258C182.061 259.693 176.796 255.937 171.232 256.869C165.669 257.802 161.914 263.069 162.846 268.633C163.778 274.198 169.044 277.954 174.607 277.022Z" fill="#EBEBEB"/>
<path d="M184.715 243.373C182.688 242.168 178.117 248.107 180.518 249.955C182.92 251.804 187.956 245.302 184.715 243.373Z" fill="#EBEBEB"/>
<path d="M190.009 201.105C190.902 204.722 191.795 208.473 192.455 212.286C192.539 212.76 192.75 213.203 193.064 213.568C193.378 213.932 193.785 214.205 194.241 214.358H194.366C195.527 213.778 196.759 213.063 197.044 212.51C197.607 211.384 195.116 202.883 194.152 201.516C193.187 200.15 190.009 201.105 190.009 201.105Z" fill="#A6A6A6"/>
<path d="M206.83 195.292C206.597 198.864 205.187 201.766 202.017 203.535C199.586 204.856 197.044 205.962 194.419 206.839C192.937 207.348 193.58 209.714 195.071 209.196C198.425 208.148 201.632 206.678 204.615 204.82C207.767 202.695 209.035 198.98 209.276 195.292C209.374 193.72 206.937 193.729 206.83 195.292Z" fill="#A6A6A6"/>
<path d="M200.365 193.14C200.365 194.66 200.816 196.147 201.661 197.411C202.506 198.676 203.706 199.661 205.111 200.243C206.516 200.825 208.061 200.978 209.552 200.681C211.043 200.384 212.413 199.652 213.488 198.577C214.563 197.501 215.295 196.131 215.592 194.64C215.889 193.148 215.736 191.602 215.155 190.197C214.573 188.792 213.588 187.591 212.323 186.746C211.059 185.901 209.573 185.45 208.053 185.45C207.043 185.45 206.044 185.649 205.111 186.036C204.178 186.422 203.331 186.989 202.617 187.703C201.903 188.417 201.337 189.264 200.951 190.197C200.564 191.13 200.365 192.13 200.365 193.14Z" fill="#A6A6A6"/>
<path d="M194.759 224.128C184.563 227.254 140.69 243.454 112.754 297.608C112.53 298.048 112.189 298.418 111.768 298.677C111.347 298.935 110.863 299.072 110.37 299.073H106.45C105.957 299.072 105.473 298.935 105.052 298.677C104.631 298.418 104.29 298.048 104.067 297.608C76.1214 243.454 32.2484 227.254 22.0525 224.128C21.4461 223.943 20.9248 223.549 20.5815 223.016C20.2382 222.483 20.0951 221.846 20.1776 221.217V220.976L20.3025 220.02L20.749 216.582C20.8102 216.106 20.9983 215.655 21.2936 215.276C21.5889 214.897 21.9805 214.605 22.4274 214.43H22.5435C22.9998 214.277 23.4064 214.004 23.7206 213.639C24.0348 213.274 24.245 212.832 24.3291 212.358C25.0255 208.545 25.8648 204.794 26.7844 201.177C28.3022 195.238 30.061 189.639 31.8199 184.629C34.3904 177.278 37.3711 170.078 40.748 163.062C40.9676 162.609 41.3102 162.227 41.7365 161.961C42.1629 161.694 42.6557 161.552 43.1586 161.552H173.653C174.157 161.551 174.652 161.691 175.08 161.958C175.508 162.225 175.852 162.608 176.072 163.062C179.452 170.077 182.433 177.277 185 184.629C186.786 189.639 188.518 195.238 190.036 201.177C190.929 204.794 191.821 208.545 192.491 212.358C192.575 212.832 192.785 213.274 193.1 213.639C193.414 214.004 193.82 214.277 194.277 214.43H194.402C194.849 214.605 195.24 214.897 195.535 215.276C195.831 215.655 196.019 216.106 196.08 216.582L196.518 220.02L196.643 220.976V221.217C196.725 221.847 196.58 222.485 196.235 223.019C195.89 223.552 195.367 223.945 194.759 224.128Z" fill="#EBEBEB"/>
<path d="M196.607 220.976C192.509 221.931 180.09 225.307 165.135 234.264C148.484 244.231 125.235 263.297 108.406 297.742C91.576 263.297 68.3271 244.231 51.685 234.264C36.7304 225.334 24.3113 221.931 20.2043 220.976L20.3293 220.02C24.4184 220.913 36.9893 224.36 52.1314 233.416C68.6307 243.239 91.5403 261.993 108.379 295.572C125.244 262.002 148.163 243.275 164.626 233.416C179.804 224.36 192.303 220.913 196.428 220.02L196.607 220.976Z" fill="white"/>
<path d="M177.661 166.384L37.8732 169.259C39.0963 166.464 40.1141 164.33 40.748 163.008C40.9676 162.556 41.3102 162.174 41.7365 161.907C42.1629 161.64 42.6557 161.499 43.1586 161.499H173.661C174.164 161.499 174.657 161.64 175.084 161.907C175.51 162.174 175.852 162.556 176.072 163.008C176.474 163.83 177.018 164.973 177.661 166.384Z" fill="#DBDBDB"/>
<path d="M108.406 269.022C105.978 269.022 103.604 268.302 101.585 266.952C99.5665 265.603 97.993 263.685 97.0639 261.442C96.1347 259.198 95.8916 256.729 96.3653 254.347C96.839 251.965 98.0082 249.777 99.725 248.06C101.442 246.342 103.629 245.173 106.011 244.699C108.392 244.225 110.86 244.468 113.104 245.398C115.347 246.327 117.264 247.901 118.613 249.92C119.962 251.94 120.682 254.314 120.682 256.742C120.677 259.998 119.382 263.118 117.081 265.42C114.78 267.722 111.66 269.017 108.406 269.022ZM108.406 245.928C106.267 245.928 104.177 246.562 102.399 247.75C100.621 248.939 99.235 250.628 98.4166 252.604C97.5983 254.58 97.3842 256.754 97.8014 258.852C98.2186 260.95 99.2483 262.877 100.76 264.39C102.272 265.902 104.199 266.932 106.296 267.349C108.394 267.767 110.568 267.553 112.543 266.734C114.519 265.915 116.207 264.529 117.395 262.751C118.584 260.972 119.218 258.881 119.218 256.742C119.215 253.875 118.075 251.125 116.048 249.098C114.021 247.07 111.272 245.93 108.406 245.928Z" fill="white"/>
<path d="M111.102 268.584L108.468 254.179L106.504 268.566L100.049 248.321L101.451 247.874L105.924 261.931L108.254 244.892L111.307 261.529L114.718 247.41L116.146 247.749L111.102 268.584Z" fill="white"/>
<path d="M104.986 171.403V198.685C104.986 199.931 104.491 201.126 103.611 202.007C102.73 202.888 101.536 203.383 100.29 203.383H39.8643C39.118 203.386 38.3817 203.212 37.7165 202.874C37.0513 202.535 36.4764 202.043 36.0398 201.438C35.6031 200.832 35.3173 200.131 35.2061 199.393C35.0948 198.655 35.1614 197.901 35.4002 197.194L35.5787 196.667L44.5069 169.876C44.8189 168.939 45.4184 168.125 46.2199 167.55C47.0215 166.974 47.9842 166.666 48.971 166.67H100.245C100.576 166.668 100.905 166.704 101.227 166.777C102.28 166.998 103.223 167.576 103.9 168.412C104.576 169.248 104.944 170.291 104.942 171.367L104.986 171.403Z" fill="#C7C7C7"/>
<g opacity="0.3">
<path d="M95.4778 166.705L58.8188 203.383H47.4711L84.1479 166.705H95.4778Z" fill="white"/>
<path d="M104.986 189.585V198.685C104.986 199.931 104.491 201.126 103.611 202.007C102.73 202.888 101.536 203.383 100.29 203.383H91.1923L104.986 189.585Z" fill="white"/>
<path d="M104.933 170.688L72.2378 203.383H64.7203L101.272 166.768C102.209 166.969 103.063 167.453 103.717 168.154C104.371 168.855 104.796 169.739 104.933 170.688Z" fill="white"/>
<path d="M69.3092 166.705L35.534 200.498C35.0922 199.448 35.0509 198.272 35.418 197.194L35.5965 196.667L65.5505 166.705H69.3092Z" fill="white"/>
</g>
<path d="M176.947 203.383H116.521C115.277 203.38 114.083 202.885 113.203 202.004C112.323 201.124 111.827 199.93 111.825 198.685V171.403C111.827 170.158 112.323 168.964 113.203 168.084C114.083 167.203 115.277 166.708 116.521 166.705H167.805C168.791 166.704 169.752 167.013 170.553 167.589C171.354 168.164 171.954 168.976 172.269 169.911L174.688 177.145L176.581 182.78L179.938 192.809L181.411 197.194C181.646 197.901 181.709 198.654 181.596 199.39C181.483 200.127 181.197 200.826 180.761 201.43C180.325 202.034 179.752 202.526 179.089 202.866C178.426 203.205 177.692 203.383 176.947 203.383Z" fill="#C7C7C7"/>
<g opacity="0.3">
<path d="M125.521 166.705L111.825 180.405V171.403C111.827 170.158 112.323 168.964 113.203 168.084C114.083 167.203 115.277 166.708 116.521 166.705H125.521Z" fill="white"/>
<path d="M176.947 203.383H169.349L179.929 192.809L181.402 197.194C181.637 197.9 181.7 198.652 181.588 199.388C181.475 200.124 181.19 200.822 180.755 201.426C180.32 202.031 179.748 202.523 179.086 202.863C178.424 203.203 177.691 203.381 176.947 203.383Z" fill="white"/>
<path d="M156.412 166.705L119.744 203.383H116.521C115.372 203.385 114.262 202.962 113.405 202.195L148.886 166.705H156.412Z" fill="white"/>
<path d="M176.572 182.78L155.975 203.383H148.44L174.679 177.145L176.572 182.78Z" fill="white"/>
<path d="M164.841 166.705L128.182 203.383H124.405L161.082 166.705H164.841Z" fill="white"/>
</g>
<path d="M197.035 295.572H19.7758V313.138H197.035V295.572Z" fill="#C7C7C7"/>
<path d="M311.53 326.972C309.28 324.06 306.718 320.854 306.879 316.996C307.022 313.424 308.218 309.477 311.486 307.584C312.423 307.039 313.102 306.851 313.405 308.057C313.86 309.888 313.084 312.111 312.691 313.888C312.158 316.176 311.841 318.508 311.744 320.854C311.691 322.497 311.807 324.15 311.798 325.802C311.798 326.007 311.798 326.213 311.798 326.418V326.704L311.852 326.793C311.867 326.819 311.874 326.848 311.874 326.878C311.874 326.908 311.867 326.937 311.852 326.963V327.016C311.831 327.042 311.805 327.062 311.774 327.075C311.744 327.087 311.711 327.091 311.678 327.087C311.645 327.082 311.615 327.069 311.589 327.049C311.563 327.029 311.543 327.002 311.53 326.972Z" fill="#F66E3C"/>
<path d="M311.834 326.972C309.995 324.292 307.843 321.613 308.111 318.193C308.27 316.618 308.677 315.078 309.316 313.629C309.593 312.978 310.405 311.004 311.262 310.95C312.816 310.87 310.745 317.103 310.646 317.836C310.335 320.543 310.732 323.285 311.798 325.793C311.798 325.998 311.798 326.204 311.798 326.409C311.013 324.653 310.521 322.779 310.343 320.863C310.111 318.184 311.012 315.987 311.495 313.424C311.602 312.87 312.03 311.12 311.084 311.263C310.459 311.352 309.646 313.272 309.477 313.683C308.875 315.057 308.483 316.514 308.316 318.005C307.995 321.417 310.102 324.185 311.887 326.936L311.834 326.972Z" fill="white"/>
<path d="M310.896 329.928L310.503 330.097C310.489 330.106 310.472 330.11 310.454 330.11C310.437 330.11 310.42 330.106 310.405 330.097C310.374 330.074 310.352 330.041 310.342 330.004C310.333 329.967 310.336 329.927 310.352 329.892C310.37 329.868 310.395 329.849 310.423 329.838H310.477H310.602C312.191 327.882 314.102 326.204 315.673 324.221C317.244 322.238 318.548 320.345 320.199 318.577C321.235 317.461 326.717 312.245 327.887 315.469C328.404 316.898 327.271 318.952 326.565 320.149C325.601 321.731 324.361 323.129 322.905 324.275C319.351 327.043 314.994 328.115 310.896 329.928Z" fill="#F66E3C"/>
<path d="M319.092 325.328C320.522 324.382 321.808 323.236 322.914 321.926C323.289 321.47 325.11 319.247 324.512 318.559C324.128 318.095 323.101 318.702 322.726 318.89C321.244 319.693 320.182 321.131 319.048 322.346C316.745 324.801 314.265 327.085 311.628 329.177C311.441 329.276 311.244 329.374 311.066 329.481L310.593 329.731L310.432 329.82L310.307 329.892C310.291 329.927 310.288 329.967 310.298 330.004C310.307 330.041 310.33 330.074 310.361 330.097C310.477 330.026 310.602 329.963 310.727 329.901L310.459 330.106L310.78 329.954H310.852L311.298 329.615C313.978 328.34 316.58 326.909 319.092 325.328ZM312.298 328.847C313.834 327.624 315.316 326.32 316.762 324.953C317.905 323.855 318.994 322.712 320.057 321.533C320.644 320.853 321.282 320.22 321.967 319.64C322.503 319.22 324.646 317.854 324.11 319.8C323.735 321.22 321.896 322.828 320.833 323.73C319.642 324.74 318.36 325.637 317.003 326.409C315.45 327.257 313.86 328.043 312.298 328.847Z" fill="white"/>
<path d="M303.87 337.42L303.772 337.322C301.986 334.491 299.084 331.071 299.254 327.498C299.379 324.864 300.825 321.327 303.441 320.247C306.396 319.032 305.825 324.614 305.745 326.043C305.391 329.864 304.824 333.662 304.048 337.42V337.492C303.995 337.51 303.923 337.474 303.87 337.42Z" fill="#F66E3C"/>
<path d="M304.013 337.42C304.013 337.197 304.013 336.965 304.013 336.742C303.852 334.134 303.807 331.517 303.888 328.909C303.888 328.249 304.423 323.212 303.12 323.453C302.325 323.596 301.852 325.48 301.682 326.132C301.374 327.238 301.25 328.388 301.316 329.535C301.495 332.169 302.834 334.545 303.772 337.001C303.825 337.108 303.861 337.224 303.906 337.34C303.901 337.366 303.901 337.394 303.906 337.42C303.923 337.474 303.986 337.51 304.013 337.42ZM301.682 330.91C301.453 329.757 301.42 328.573 301.584 327.409C301.691 326.641 302.156 323.837 303.138 323.837C303.656 323.837 303.602 324.132 303.709 324.73C303.754 324.998 303.772 325.275 303.789 325.543C303.789 326.221 303.789 326.891 303.736 327.561C303.673 328.74 303.647 329.919 303.638 331.133C303.638 333.071 303.691 335 303.825 336.929C303.147 334.884 302.102 333.009 301.682 330.946V330.91Z" fill="white"/>
<path d="M313.075 338.358C309.438 339.898 305.425 340.318 301.548 339.563H301.477C301.45 339.545 301.431 339.518 301.423 339.487C301.415 339.456 301.418 339.423 301.432 339.394C301.443 339.36 301.464 339.331 301.494 339.311C301.523 339.292 301.558 339.283 301.593 339.287L301.834 339.331C305.87 337.108 309.914 334.955 313.905 332.66C314.798 332.124 320.914 328.793 321.235 331.16C321.44 332.624 319.208 334.339 318.244 335.17C316.692 336.487 314.949 337.562 313.075 338.358Z" fill="#F66E3C"/>
<path d="M317.325 333.794C317.575 333.482 317.771 333.089 317.325 332.901C316.432 332.535 313.619 334.161 312.816 334.571C309.495 336.268 306.111 337.626 302.665 339.037L301.772 339.385H301.432C301.418 339.414 301.415 339.447 301.423 339.478C301.431 339.509 301.45 339.536 301.477 339.555H301.566H302.031C304.474 339.57 306.904 339.206 309.236 338.474C310.708 338.002 312.129 337.383 313.477 336.625C314.718 335.875 316.459 334.947 317.325 333.794ZM302.227 339.349H302.004L302.37 339.224C305.115 338.322 307.8 337.242 310.405 335.991C311.718 335.348 312.985 334.625 314.316 334.036C314.887 333.777 316.459 333.018 316.994 333.259C317.53 333.5 316.994 333.884 316.673 334.152C316.351 334.42 316.057 334.643 315.851 334.795C311.908 337.721 307.137 339.316 302.227 339.349Z" fill="white"/>
<path d="M293.87 345.77L293.478 345.225L294.897 344.154C296.79 342.698 298.665 341.225 300.522 339.689C301.584 338.796 302.62 337.956 303.62 337.063L303.727 336.974L303.968 336.75L304.236 336.5C306.514 334.487 308.46 332.127 310.004 329.508C310.512 328.615 310.968 327.722 311.414 326.784L311.539 326.516V326.445C311.584 326.355 311.62 326.266 311.664 326.168L311.762 325.962C313.075 323.105 314.155 320.131 315.334 317.228C315.664 316.398 315.994 315.558 316.334 314.728C316.349 314.678 316.37 314.63 316.396 314.585C316.416 314.521 316.44 314.458 316.468 314.397C317.941 310.727 319.458 307.066 320.842 303.359C320.887 303.216 321.092 303.359 321.039 303.458C320.146 305.931 319.307 308.432 318.45 310.932C318.334 311.263 318.217 311.593 318.11 311.924L317.423 313.897C316.968 315.21 316.53 316.514 316.012 317.818C314.731 321.529 313.225 325.158 311.503 328.686L311.084 329.454L310.816 329.928L310.495 330.481C308.562 333.566 306.102 336.287 303.227 338.519L302.638 339.001L302.361 339.224L302.218 339.34L302.022 339.492L301.879 339.608L301.361 340.01C299.477 341.484 297.576 342.93 295.674 344.368C295.076 344.833 294.477 345.297 293.87 345.77Z" fill="#F66E3C"/>
<path d="M317.253 304.226C318.146 301.288 320.958 296.394 324.69 297.081C325.394 297.182 326.036 297.54 326.493 298.085C326.949 298.631 327.188 299.326 327.163 300.037C327.163 301.823 325.949 303.467 324.904 304.788C322.119 308.36 319.021 311.575 316.485 315.308C316.485 315.308 316.262 315.63 316.208 315.71C316.155 315.791 316.048 315.71 316.092 315.621L316.342 315.255C316.36 311.602 316.146 307.709 317.253 304.226Z" fill="#F66E3C"/>
<path d="M316.485 315.299V315.219C316.951 314.098 317.485 313.007 318.083 311.95C319.36 309.785 320.764 307.697 322.289 305.699C322.869 304.922 325.788 301.189 323.369 300.93C322.351 300.823 321.306 301.689 320.619 302.323C319.495 303.346 318.585 304.581 317.941 305.958C316.787 308.706 316.235 311.669 316.325 314.647C316.325 314.781 316.325 314.915 316.325 315.049L316.271 315.174V315.255C316.271 315.255 316.271 315.255 316.271 315.308C316.274 315.323 316.28 315.336 316.289 315.348C316.297 315.36 316.308 315.37 316.321 315.377C316.333 315.385 316.347 315.39 316.362 315.392C316.376 315.394 316.391 315.393 316.405 315.389C316.427 315.386 316.447 315.376 316.462 315.36C316.477 315.343 316.485 315.322 316.485 315.299ZM316.485 314.406C316.514 311.948 316.917 309.509 317.682 307.173C318.1 305.959 318.702 304.818 319.467 303.788C319.81 303.332 320.192 302.908 320.61 302.52C320.916 302.223 321.247 301.954 321.601 301.716C322.378 301.189 323.431 300.912 323.833 301.305C324.235 301.698 324.146 302.198 323.771 303.029C323.642 303.306 323.496 303.575 323.333 303.833C322.94 304.485 322.485 305.101 322.039 305.708C321.28 306.726 320.539 307.735 319.824 308.78C319.342 309.486 318.878 310.209 318.449 310.941C317.693 312.2 317.025 313.51 316.45 314.862C316.458 314.728 316.467 314.576 316.476 314.424L316.485 314.406Z" fill="white"/>
<path d="M64.8185 322.238C66.6041 323.917 68.3362 325.712 70.0236 327.516C70.97 328.543 71.9164 329.579 72.8717 330.606C73.827 331.633 74.9162 333 76.4429 333.553L76.6215 333.661C76.6301 333.692 76.6304 333.725 76.6224 333.756C76.6143 333.788 76.5983 333.817 76.5758 333.84C76.5533 333.863 76.5251 333.881 76.494 333.89C76.4629 333.899 76.4299 333.9 76.3983 333.893L76.3001 333.848C75.8435 333.799 75.3941 333.697 74.9609 333.544C73.7513 333.254 72.559 332.897 71.3896 332.473C68.9729 331.62 66.6724 330.468 64.5417 329.043C62.6377 327.765 60.9141 326.236 59.4169 324.498C58.2206 323.105 56.4171 321.06 56.0867 319.14C55.7832 317.443 57.9706 317.782 58.9795 318.077C61.1937 318.872 63.1043 320.693 64.8185 322.238Z" fill="#F66E3C"/>
<path d="M59.3097 321.042C58.7919 321.765 60.765 323.971 61.5953 324.962C62.9102 326.511 64.4093 327.894 66.0594 329.079C69.0248 331.191 72.3277 332.782 75.8268 333.786L76.2464 333.911H76.3447C76.376 333.919 76.409 333.92 76.4404 333.911C76.4719 333.903 76.5007 333.887 76.5241 333.865C76.5475 333.842 76.5647 333.814 76.5739 333.783C76.5831 333.752 76.5841 333.719 76.5768 333.687C76.2911 333.553 76.0232 333.419 75.7643 333.277C75.5054 333.134 75.2822 333.009 75.059 332.866C72.574 331.25 70.2667 329.376 68.1754 327.275C65.6755 324.971 60.0061 320.077 59.3097 321.042ZM75.4518 333.375C75.809 333.571 76.1661 333.75 76.5232 333.911L75.6304 333.634C72.5773 332.657 69.6702 331.272 66.988 329.517C64.6633 327.994 62.6185 326.082 60.9436 323.864C60.7025 323.533 59.158 321.596 59.5329 321.185C59.9079 320.774 61.6489 322.078 61.6846 322.131C62.0507 322.364 62.4078 322.623 62.7649 322.881C63.4881 323.417 64.1845 323.989 64.872 324.569C66.3541 325.837 67.7647 327.195 69.2021 328.508C71.0877 330.369 73.1853 332.003 75.4518 333.375Z" fill="white"/>
<path d="M78.5142 314.764C80.1659 317.961 80.5587 321.631 80.6034 325.186C80.6034 327.079 80.6034 328.981 80.5409 330.883C80.435 332.579 80.4978 334.281 80.7284 335.965C80.7242 336.039 80.7242 336.114 80.7284 336.188C80.8255 336.653 80.9752 337.105 81.1748 337.536C81.1836 337.55 81.1883 337.565 81.1883 337.581C81.1883 337.597 81.1836 337.612 81.1748 337.626L81.2551 337.751C81.2551 337.751 81.2551 337.822 81.2105 337.795C81.1667 337.762 81.1249 337.726 81.0855 337.688C81.0749 337.691 81.0639 337.691 81.0532 337.69C81.0425 337.688 81.0322 337.684 81.023 337.678C81.0138 337.672 81.0059 337.665 80.9998 337.656C80.9936 337.647 80.9894 337.636 80.9873 337.626V337.572L80.8712 337.465C78.0946 334.911 76.5411 330.58 75.5143 327.097C74.3256 323.65 74.1094 319.942 74.8894 316.38C75.1215 315.487 75.5143 313.371 76.5946 313.067C77.6749 312.763 78.166 314.085 78.5142 314.764Z" fill="#F66E3C"/>
<path d="M77.0589 316.88C75.9697 317.059 76.1661 320.051 76.2286 320.774C76.3704 322.983 76.702 325.176 77.2196 327.329C77.8808 330.843 79.0856 334.233 80.7909 337.376C80.7926 337.425 80.8076 337.472 80.8344 337.513C80.8611 337.554 80.8986 337.587 80.9427 337.608C80.9427 337.608 80.9427 337.608 80.9427 337.661C80.9489 337.684 80.9636 337.703 80.9836 337.714C81.0036 337.726 81.0273 337.729 81.0498 337.724C81.0447 337.667 81.0447 337.611 81.0498 337.554C80.9337 337.117 80.8266 336.661 80.7373 336.233C80.7373 336.152 80.7373 336.081 80.7373 336.009C80.2104 332.89 79.8853 329.74 79.7641 326.579C79.6355 324.38 79.3037 322.197 78.7731 320.059C78.6124 319.47 77.9696 316.684 77.0589 316.88ZM78.0321 318.461C79.5231 321.908 79.4784 325.998 79.7284 329.678C79.8317 332.167 80.1755 334.64 80.7552 337.063C79.2981 334.163 78.2352 331.082 77.5946 327.9C77.1598 326.106 76.8319 324.286 76.6125 322.453C76.4843 321.461 76.4276 320.461 76.4429 319.461C76.4547 318.859 76.5326 318.26 76.675 317.675C77.05 316.559 77.7732 317.827 78.0321 318.416V318.461Z" fill="white"/>
<path d="M87.1209 342.395C87.1358 342.425 87.1436 342.459 87.1436 342.493C87.1436 342.527 87.1358 342.56 87.1209 342.591H87.1923C87.2073 342.593 87.221 342.601 87.2308 342.612C87.2407 342.624 87.246 342.638 87.2459 342.654C87.2459 342.654 87.2459 342.707 87.2012 342.716C82.9246 343.386 78.1749 343.609 73.9697 342.439C72.1899 341.964 70.4986 341.204 68.961 340.189C67.9164 339.483 65.8094 338.054 65.6933 336.617C65.4522 333.777 72.9697 336.715 74.1036 337.17C76.166 337.983 78.1481 338.956 80.2015 339.849C82.4336 340.742 84.7371 341.546 87.0405 342.323C87.0581 342.329 87.0743 342.338 87.0882 342.35C87.102 342.363 87.1131 342.378 87.1209 342.395Z" fill="#F66E3C"/>
<path d="M87.121 342.395L86.4335 342.323C82.6933 341.91 79.0399 340.919 75.6037 339.385C73.9022 338.566 72.134 337.894 70.3182 337.376C69.8629 337.269 68.1844 336.733 68.4522 337.813C68.5951 338.367 71.345 339.957 72.0949 340.305C73.8046 341.087 75.6036 341.657 77.4518 342.002C80.5664 342.616 83.7462 342.835 86.9157 342.654H87.1835C87.1835 342.654 87.1835 342.591 87.1299 342.6H87.0585C87.0869 342.575 87.1077 342.542 87.1187 342.506C87.1298 342.47 87.1305 342.431 87.121 342.395ZM79.0857 342.064C77.2254 341.81 75.397 341.361 73.6306 340.725C72.9321 340.467 72.2494 340.169 71.586 339.832C71.0602 339.574 70.5557 339.276 70.0772 338.939C68.9165 338.099 68.6844 337.795 68.7826 337.572C68.8808 337.349 69.0861 337.358 70.0236 337.51C70.6333 337.624 71.231 337.794 71.8092 338.019C72.6306 338.331 73.4341 338.671 74.2287 339.019C75.8358 339.707 77.425 340.421 79.0767 340.993C81.4362 341.822 83.8949 342.335 86.3889 342.52C83.946 342.574 81.5029 342.421 79.0857 342.064Z" fill="white"/>
<path d="M86.6477 330.115C87.6662 331.283 88.4214 332.657 88.8619 334.143C89.8351 337.054 90.1743 340.126 90.9422 343.073C91.0582 343.52 91.1832 343.966 91.3261 344.404C91.3261 344.449 91.6296 344.931 91.5939 344.904C91.5582 344.877 91.4511 344.761 91.21 344.511C90.0583 343.297 86.612 339.555 85.2906 337.027C84.4277 335.463 83.762 333.799 83.3086 332.071C83.1211 331.249 82.7729 329.392 83.5854 328.767C84.3978 328.141 86.121 329.526 86.6477 330.115Z" fill="#F66E3C"/>
<path d="M84.9247 330.83C83.7819 331.312 86.1479 336.34 86.4425 337.001C87.5439 339.451 88.9638 341.745 90.6655 343.823C90.853 344.065 91.0405 344.297 91.2369 344.529L91.6208 344.931C91.6208 344.931 91.3708 344.466 91.344 344.413L91.2815 344.19C91.1655 343.823 91.0673 343.457 90.978 343.1C90.2191 341.109 89.5048 339.108 88.7102 337.134C88.1561 335.705 87.4873 334.322 86.7103 333C86.5228 332.705 85.4247 330.624 84.9247 330.83ZM85.8621 331.874C88.4245 335.545 89.3531 339.974 91.0405 344.047L91.1208 344.252C91.0583 344.163 90.978 344.073 90.9155 343.975C89.5505 342.226 88.3547 340.351 87.3442 338.376C86.7358 337.17 86.1992 335.93 85.7372 334.661C85.4499 333.976 85.2112 333.272 85.0229 332.553C84.9515 332.241 84.7997 331.365 85.0229 331.258C85.2461 331.151 85.6925 331.633 85.8621 331.874Z" fill="white"/>
<path d="M64.4881 301.243C68.5236 307.968 66.4701 316.603 70.0414 323.569C70.1486 323.783 70.2646 323.989 70.3807 324.203C70.3927 324.224 70.3995 324.247 70.4003 324.271C70.4011 324.294 70.3959 324.318 70.3853 324.339C70.3746 324.361 70.3588 324.379 70.3393 324.393C70.3198 324.406 70.2972 324.415 70.2735 324.417C70.2518 324.417 70.2305 324.411 70.2117 324.4C70.1929 324.389 70.1773 324.374 70.1664 324.355L70.086 324.203C66.8985 321.06 64.3009 317.369 62.4168 313.308C60.7651 309.914 59.6758 306.11 60.2383 302.315C60.3811 301.421 60.5865 299.519 61.7204 299.162C62.8542 298.805 63.997 300.412 64.4881 301.243Z" fill="#F66E3C"/>
<path d="M63.1041 303.708C62.6309 303.868 62.5684 304.601 62.5149 304.949C62.3825 305.902 62.3615 306.867 62.4524 307.825C62.6568 309.786 63.1502 311.706 63.9166 313.522C65.132 316.684 66.7334 319.684 68.6842 322.453C69.1306 323.069 69.577 323.658 70.1038 324.239L70.2913 324.453C70.3147 324.45 70.3371 324.441 70.3565 324.428C70.3759 324.414 70.3919 324.396 70.4032 324.375C70.4145 324.354 70.4207 324.331 70.4215 324.308C70.4222 324.284 70.4174 324.26 70.4074 324.239C70.2824 324.033 70.1752 323.837 70.0681 323.632V323.578C69.2582 322.243 68.5766 320.835 68.0325 319.372C67.2858 317.064 66.6893 314.71 66.2468 312.326C65.9969 311.361 64.7291 303.181 63.1041 303.708ZM64.1666 305.083C64.8671 306.905 65.37 308.797 65.6665 310.727C66.0951 312.629 66.4968 314.54 66.9522 316.434C67.3114 317.939 67.7952 319.411 68.3985 320.836C68.8925 322.024 69.49 323.165 70.1842 324.248C69.3843 323.264 68.6449 322.232 67.97 321.158C67.97 321.158 67.97 321.158 67.97 321.113C66.7934 319.185 65.7407 317.183 64.8183 315.121C64.8166 315.097 64.8166 315.073 64.8183 315.049C63.9576 313.254 63.3132 311.362 62.8988 309.414C62.689 308.353 62.5991 307.272 62.6309 306.19C62.6934 304.967 62.8631 303.985 63.2827 303.967C63.5327 303.958 63.9255 304.565 64.1666 305.083Z" fill="white"/>
<path d="M64.988 315.04C66.0951 316.987 67.2468 318.916 68.3986 320.836L70.0324 323.515V323.569L70.6217 324.542C72.3092 327.579 74.2411 330.473 76.3982 333.196C77.5999 334.567 78.9271 335.823 80.3623 336.947L80.7998 337.304L81.0408 337.483L81.1748 337.59C82.4247 338.554 83.7282 339.456 84.996 340.332C86.7816 341.546 88.5673 342.636 90.4511 343.707L90.6208 343.797C90.7008 343.852 90.7843 343.903 90.8707 343.948L90.9957 344.02L91.2368 344.163C91.8261 344.502 92.4242 344.85 93.0224 345.208L92.6385 345.743C90.6952 344.872 88.8209 343.854 87.0316 342.698C86.9927 342.68 86.9566 342.656 86.9245 342.627C86.7459 342.52 86.5674 342.412 86.3977 342.296C86.2281 342.18 85.9692 342.019 85.7549 341.877L84.2371 340.858C81.2489 338.928 78.5006 336.65 76.05 334.071L75.9339 333.848L75.8536 333.75L75.7107 333.598L75.4965 333.339C75.3715 333.187 75.2465 333.026 75.1304 332.866L75.0233 332.732C73.172 330.172 71.5013 327.486 70.0235 324.694C69.7378 324.203 69.461 323.703 69.1843 323.212L68.7289 322.381L68.0504 321.113C68.0504 321.113 68.0504 321.113 68.0504 321.069C66.9879 319.077 65.9701 317.068 64.8987 315.076C64.7827 315.032 64.9344 314.951 64.988 315.04Z" fill="#F66E3C"/>
<path d="M0 345.467L47.9978 345.253L96.0045 345.172L192 345.02L287.996 345.172L336.002 345.253L384 345.467L336.002 345.691L287.996 345.771L192 345.914L96.0045 345.771L47.9978 345.691L0 345.467Z" fill="#263238"/>
<path d="M306.352 46.769C305.613 46.3907 304.849 46.0625 304.066 45.7866C303.265 45.4867 302.427 45.2945 301.575 45.2151C301.313 45.1955 301.05 45.2258 300.799 45.3044C300.717 45.3306 300.639 45.3666 300.566 45.4115L300.415 45.5276C300.308 45.5991 300.236 45.6705 300.147 45.742C299.832 46.0224 299.534 46.3205 299.254 46.635C298.692 47.2602 298.192 47.921 297.692 48.5997L298.317 48.3765C297.48 48.1449 296.631 47.966 295.772 47.8406C295.331 47.7792 294.887 47.7494 294.442 47.7513C294.207 47.7338 293.971 47.7338 293.736 47.7513C293.607 47.7767 293.478 47.8095 293.352 47.8496C293.223 47.8981 293.097 47.9578 292.978 48.0282C292.598 48.3196 292.266 48.6692 291.995 49.0641C291.724 49.4031 291.474 49.7579 291.245 50.1268C290.794 50.8523 290.397 51.6105 290.058 52.3952C290.612 51.7433 291.138 51.0824 291.701 50.4662C291.978 50.1536 292.254 49.85 292.549 49.5731C292.811 49.2987 293.112 49.064 293.442 48.8766C293.76 48.7696 294.099 48.736 294.433 48.7783C294.814 48.8172 295.193 48.8799 295.567 48.9659C296.37 49.1088 297.183 49.3052 297.968 49.5196L298.361 49.6267L298.584 49.3052C299.04 48.6444 299.54 48.0014 300.031 47.3763C300.281 47.0637 300.54 46.76 300.799 46.4832L300.995 46.2957L301.084 46.2242C301.224 46.1693 301.372 46.1391 301.522 46.1349C302.313 46.1351 303.103 46.2129 303.879 46.3671C304.736 46.4475 305.539 46.6172 306.352 46.769Z" fill="#263238"/>
<path d="M297.352 71.0508C296.375 70.2855 295.349 69.5845 294.281 68.9522C293.191 68.272 292.014 67.7433 290.781 67.3804C290.404 67.272 290.011 67.2356 289.62 67.2732C289.489 67.2923 289.361 67.3252 289.237 67.3715L288.987 67.4876C288.83 67.5617 288.678 67.6452 288.531 67.7376C287.975 68.0656 287.438 68.4264 286.924 68.8182C285.915 69.5773 284.996 70.3989 284.058 71.2473L285.031 71.1044C283.877 70.5154 282.684 70.0052 281.46 69.5773C280.832 69.3618 280.191 69.1858 279.541 69.0504C279.193 68.9816 278.841 68.9368 278.487 68.9164C278.291 68.9035 278.094 68.9035 277.898 68.9164C277.692 68.9544 277.49 69.0051 277.291 69.0683C276.64 69.3475 276.038 69.7272 275.505 70.1935C274.996 70.6222 274.541 71.0865 274.094 71.5331C273.215 72.4645 272.412 73.465 271.693 74.5248C272.684 73.721 273.648 72.9084 274.657 72.1671C275.143 71.7859 275.65 71.4311 276.175 71.1044C276.651 70.7983 277.168 70.5608 277.71 70.3989C278.212 70.3386 278.72 70.3874 279.201 70.5418C279.78 70.6982 280.347 70.8951 280.898 71.1312C282.032 71.5688 283.165 72.1046 284.255 72.6405L284.799 72.9173L285.228 72.5065C286.121 71.676 287.013 70.8633 287.906 70.0953C288.362 69.7113 288.799 69.3362 289.29 69.0147C289.406 68.9432 289.522 68.8629 289.629 68.8093L289.79 68.72C289.79 68.72 289.79 68.72 289.844 68.72C290.065 68.6792 290.292 68.6792 290.513 68.72C291.675 68.9489 292.812 69.2929 293.906 69.747C295.085 70.1131 296.218 70.5954 297.352 71.0508Z" fill="#263238"/>
<path d="M74.6214 110.443C73.9556 109.946 73.2543 109.498 72.5233 109.104C71.7805 108.677 70.9851 108.35 70.1573 108.13C69.9033 108.068 69.6401 108.053 69.3806 108.085C69.2957 108.103 69.2121 108.127 69.1306 108.157L68.961 108.246L68.6663 108.416C68.3028 108.647 67.954 108.901 67.6217 109.175C66.9611 109.702 66.3629 110.273 65.7558 110.854L66.4075 110.738C65.6211 110.388 64.8129 110.09 63.988 109.845C63.561 109.711 63.1255 109.607 62.6845 109.532C62.4514 109.492 62.2156 109.472 61.9791 109.47C61.8515 109.457 61.7229 109.457 61.5952 109.47C61.4551 109.496 61.3177 109.535 61.1845 109.586C60.7643 109.785 60.3785 110.051 60.0417 110.372C59.7114 110.666 59.4168 110.979 59.1489 111.265C58.5842 111.908 58.0708 112.595 57.6133 113.319C58.2561 112.756 58.89 112.193 59.5418 111.675C59.8632 111.417 60.1935 111.158 60.5328 110.934C60.8374 110.712 61.1708 110.531 61.5238 110.398C61.8575 110.342 62.1997 110.363 62.5238 110.461C62.9123 110.554 63.2941 110.674 63.6666 110.818C64.4344 111.086 65.2111 111.417 65.9432 111.711L66.3182 111.881L66.595 111.595C67.1486 111.024 67.7467 110.47 68.336 109.934C68.6207 109.669 68.9187 109.419 69.2288 109.184L69.452 109.032L69.5502 108.97C69.6981 108.946 69.8488 108.946 69.9966 108.97C70.7736 109.097 71.5362 109.3 72.2733 109.577C73.0768 109.863 73.8447 110.157 74.6214 110.443Z" fill="#263238"/>
<path d="M94.9777 107.148C94.2729 106.121 93.5004 105.143 92.6653 104.219C91.8275 103.249 90.8636 102.396 89.7994 101.682C89.4674 101.475 89.1019 101.327 88.7191 101.245C88.5885 101.23 88.4568 101.23 88.3262 101.245H88.0495C87.862 101.245 87.7102 101.316 87.5405 101.343C86.9152 101.498 86.2983 101.686 85.6924 101.906C84.496 102.334 83.3711 102.843 82.2372 103.37L83.2015 103.531C82.274 102.62 81.2835 101.775 80.2373 101.004C79.6995 100.614 79.139 100.256 78.5588 99.9321C78.2461 99.7615 77.9207 99.6152 77.5856 99.4945C77.4028 99.4281 77.2146 99.3773 77.0232 99.3426C76.8121 99.3288 76.6004 99.3288 76.3893 99.3426C75.6951 99.4224 75.0175 99.6091 74.3804 99.8963C73.7733 100.155 73.2019 100.45 72.5948 100.789C71.4816 101.421 70.4189 102.137 69.4164 102.933C70.6038 102.468 71.7645 101.977 72.9876 101.566C73.5727 101.345 74.1687 101.155 74.7733 100.995C75.3188 100.832 75.8828 100.739 76.4518 100.718C76.9506 100.811 77.4229 101.012 77.8356 101.307C78.3395 101.631 78.8226 101.986 79.282 102.37C80.2284 103.129 81.1569 103.969 82.0408 104.808L82.4783 105.237L83.005 104.969C84.0764 104.433 85.1924 103.933 86.2906 103.469C86.8272 103.235 87.3755 103.029 87.9334 102.852L88.3262 102.745H88.5048C88.5253 102.74 88.5468 102.74 88.5673 102.745C88.7893 102.769 89.0046 102.836 89.2012 102.942C90.2455 103.5 91.2297 104.165 92.1385 104.924C93.076 105.567 94.0135 106.362 94.9777 107.148Z" fill="#263238"/>
<path d="M326.413 65.0942C325.709 64.0675 324.936 63.0889 324.101 62.165C323.265 61.1933 322.301 60.3401 321.235 59.6288C320.903 59.4212 320.538 59.2731 320.155 59.1912C320.024 59.1767 319.892 59.1767 319.762 59.1912H319.485C319.298 59.1912 319.146 59.2626 318.976 59.2894C318.351 59.4448 317.734 59.6326 317.128 59.8521C315.941 60.2807 314.807 60.7451 313.673 61.3166L314.637 61.4774C313.71 60.5664 312.719 59.7218 311.673 58.9501C311.135 58.56 310.575 58.2021 309.994 57.8784C309.682 57.7079 309.356 57.5616 309.021 57.4408C308.838 57.3744 308.65 57.3236 308.459 57.289C308.248 57.2752 308.036 57.2752 307.825 57.289C307.131 57.3687 306.453 57.5555 305.816 57.8427C305.209 58.1017 304.638 58.3964 304.03 58.7357C302.92 59.3722 301.858 60.0885 300.852 60.879C302.039 60.4147 303.209 59.9235 304.423 59.5127C305.008 59.2918 305.604 59.1011 306.209 58.9411C306.754 58.7779 307.318 58.6849 307.887 58.6643C308.386 58.7573 308.859 58.9585 309.271 59.2537C309.775 59.5773 310.258 59.9322 310.718 60.3164C311.664 61.0755 312.593 61.915 313.476 62.7545L313.914 63.1831L314.441 62.9152C315.512 62.3794 316.637 61.8793 317.735 61.4149C318.268 61.1798 318.814 60.9741 319.369 60.7987L319.762 60.6915H319.94C319.94 60.6915 319.94 60.6915 320.003 60.6915C320.228 60.7157 320.446 60.7824 320.646 60.888C321.684 61.4522 322.665 62.1162 323.574 62.8705C324.512 63.5135 325.449 64.3084 326.413 65.0942Z" fill="#263238"/>
<path d="M221.856 376C290.277 376 345.743 371.606 345.743 366.185C345.743 360.765 290.277 356.371 221.856 356.371C153.435 356.371 97.9686 360.765 97.9686 366.185C97.9686 371.606 153.435 376 221.856 376Z" fill="#EBEBEB"/>
<path d="M238.855 135.029C238.355 135.725 193.902 139.825 191.75 139.315C191.645 139.292 191.543 139.256 191.447 139.208C188.768 138.101 176.099 127.518 175.135 126.625C172.778 124.419 181.322 107.755 184.161 104.933C186.045 103.049 189.67 102.183 189.67 102.183C189.67 102.183 198.598 71.9082 204.651 65.3711C206.169 63.7368 233.766 61.7989 238.81 63.8351C240.971 64.7281 246.364 69.7113 246.542 70.649C246.739 72.0243 239.319 134.323 238.855 135.029Z" fill="#455A64"/>
<path d="M238.855 135.029C238.355 135.725 193.902 139.825 191.75 139.315C191.645 139.292 191.543 139.256 191.446 139.208C195.169 127.465 212.687 72.3369 213.24 71.9618C213.794 71.5867 240.203 70.4972 246.542 70.658C246.738 72.0243 239.319 134.323 238.855 135.029Z" fill="#37474F"/>
<path d="M248.247 61.5846C247.756 65.5586 246.131 68.6754 244.48 68.8718L207.214 69.3719L209.062 54.0383L245.444 53.5561C245.628 53.4938 245.823 53.4754 246.015 53.5025C246.08 53.494 246.146 53.494 246.212 53.5025H246.337C247.846 54.1991 248.694 57.6194 248.247 61.5846Z" fill="#F66E3C"/>
<path opacity="0.1" d="M248.247 61.5846C247.756 65.5586 246.131 68.6754 244.48 68.8718L207.214 69.3719L209.062 54.0383L245.444 53.5561C245.628 53.4938 245.823 53.4754 246.015 53.5025C246.08 53.494 246.146 53.494 246.212 53.5025H246.337C247.846 54.1991 248.694 57.6194 248.247 61.5846Z" fill="#151515"/>
<path d="M211.267 62.1205C210.758 66.3535 208.928 69.6132 207.187 69.4078C205.446 69.2024 204.437 65.5855 204.955 61.3703C205.473 57.1551 207.294 53.8777 209.035 54.0831C210.776 54.2885 211.785 57.8964 211.267 62.1205Z" fill="#F66E3C"/>
<path d="M195.134 360.095C192.982 359.354 144.181 321.756 143.234 319.149C142.859 318.166 147.922 310.727 154.296 301.931C154.359 301.832 154.43 301.743 154.493 301.654C155.805 299.868 179.286 269.504 179.286 269.504L211.383 294.884L186.25 325.525L185.831 326.052C185.831 326.052 198.071 348.798 198.812 351.781C199.553 354.763 197.277 360.836 195.134 360.095Z" fill="#FFC4C0"/>
<path d="M143.243 319.149C144.181 321.765 192.982 359.336 195.134 360.095C197.286 360.854 199.544 354.736 198.812 351.807C198.08 348.878 185.831 326.07 185.831 326.07L186.25 325.552L189.322 322.238L157.832 297.233C156.778 298.457 154.654 301.377 154.457 301.645C154.386 301.734 154.323 301.832 154.252 301.913C147.922 310.736 142.895 318.166 143.243 319.149Z" fill="#EBEBEB"/>
<path d="M195.161 360.327C193 359.568 144.002 321.408 143.056 318.773C142.69 317.773 147.823 310.316 154.296 301.475L185.956 325.98C185.956 325.98 198.187 348.985 198.919 351.995C199.651 355.004 197.357 361.095 195.161 360.327Z" fill="#F66E3C"/>
<path d="M195.982 357.826C187.947 351.227 154.805 325.373 146.341 319.425C146.27 319.381 146.234 319.425 146.297 319.479C154.145 326.195 187.473 351.772 195.884 357.925C196.053 358.085 196.152 357.96 195.982 357.826Z" fill="#263238"/>
<path d="M197.134 347.771C196.236 347.043 195.197 346.509 194.083 346.202C192.97 345.895 191.804 345.821 190.661 345.985C188.595 346.262 186.715 347.324 185.411 348.95C185.411 348.994 185.464 349.066 185.509 349.021C187.054 347.611 189.015 346.741 191.097 346.542C193.178 346.342 195.268 346.823 197.053 347.914C197.125 347.923 197.205 347.824 197.134 347.771Z" fill="#263238"/>
<path d="M188.509 329.285C185.25 326.677 180.536 324.873 176.403 325.971C176.242 325.971 176.304 326.239 176.403 326.266C180.453 326.995 184.413 328.156 188.214 329.731C188.274 329.77 188.346 329.784 188.415 329.77C188.485 329.756 188.546 329.714 188.585 329.655C188.624 329.596 188.638 329.524 188.624 329.454C188.61 329.385 188.568 329.324 188.509 329.285Z" fill="#263238"/>
<path d="M190.277 332.25C187.018 329.642 182.304 327.838 178.17 328.936C178.01 328.936 178.072 329.204 178.17 329.231C182.22 329.96 186.18 331.121 189.982 332.696C190.012 332.715 190.044 332.729 190.079 332.735C190.113 332.742 190.149 332.742 190.183 332.735C190.218 332.728 190.25 332.714 190.279 332.694C190.308 332.675 190.333 332.649 190.353 332.62C190.372 332.591 190.385 332.558 190.392 332.524C190.399 332.489 190.399 332.454 190.392 332.419C190.384 332.385 190.371 332.352 190.351 332.323C190.331 332.294 190.306 332.269 190.277 332.25Z" fill="#263238"/>
<path d="M192.045 335.215C188.786 332.607 184.072 330.803 179.938 331.901C179.777 331.946 179.84 332.169 179.938 332.196C183.999 332.913 187.971 334.066 191.786 335.634C191.839 335.647 191.895 335.643 191.946 335.623C191.997 335.602 192.039 335.566 192.068 335.519C192.097 335.472 192.11 335.418 192.106 335.363C192.102 335.308 192.08 335.256 192.045 335.215Z" fill="#263238"/>
<path d="M193.786 338.179C190.527 335.572 185.813 333.768 181.679 334.866C181.518 334.911 181.581 335.134 181.679 335.161C185.728 335.894 189.688 337.055 193.491 338.626C193.55 338.665 193.622 338.679 193.692 338.665C193.761 338.65 193.822 338.609 193.862 338.55C193.901 338.491 193.915 338.418 193.9 338.349C193.886 338.279 193.845 338.218 193.786 338.179Z" fill="#263238"/>
<path d="M154.502 313.308C150.805 310.441 146.35 316.184 150.038 319.05C153.725 321.917 158.207 316.157 154.502 313.308Z" fill="white"/>
<path d="M198.892 323.274C198.303 320.595 195.152 320.318 193.009 320.952C189.354 322.106 186.068 324.204 183.482 327.034C183.47 327.044 183.459 327.057 183.452 327.072C183.445 327.086 183.441 327.103 183.441 327.119C183.441 327.135 183.445 327.152 183.452 327.166C183.459 327.181 183.47 327.194 183.482 327.204C183.446 327.275 183.427 327.355 183.428 327.435C183.429 327.515 183.449 327.594 183.486 327.665C183.524 327.736 183.578 327.797 183.644 327.843C183.711 327.888 183.787 327.917 183.866 327.927C187.438 328.133 191.295 328.82 194.848 327.927C196.955 327.356 199.446 325.811 198.892 323.274ZM189.42 327.123C187.634 327.061 185.848 326.918 184.063 326.927C185.885 325.69 187.768 324.546 189.705 323.498C190.652 323.006 191.63 322.58 192.634 322.221C194.196 321.685 199.562 321.453 197.098 325.284C195.794 327.4 191.527 327.186 189.42 327.123Z" fill="#263238"/>
<path d="M174.358 321.89C176.885 324.569 180.474 326.043 183.625 327.793C183.698 327.826 183.776 327.842 183.856 327.838C183.935 327.835 184.012 327.812 184.081 327.773C184.15 327.734 184.209 327.679 184.252 327.612C184.295 327.546 184.322 327.47 184.331 327.391C184.402 327.391 184.465 327.391 184.456 327.257C183.78 323.482 182.12 319.952 179.643 317.023C178.179 315.335 175.367 313.897 173.438 315.844C171.51 317.791 172.894 320.327 174.358 321.89ZM173.831 318.47C173.831 313.915 178.215 316.987 179.251 318.273C179.905 319.126 180.502 320.021 181.036 320.952C182.115 322.875 183.095 324.851 183.974 326.873C182.483 325.918 180.92 325.087 179.385 324.194C177.563 323.132 173.849 320.979 173.831 318.47Z" fill="#263238"/>
<path d="M164.109 288.428L195.491 314.558C195.491 314.558 245.757 255.26 247.596 246.329C249.694 236.202 255.515 156.864 255.381 152.908C255.22 148.112 249.944 127.009 249.944 127.009H212.285C212.285 127.009 207.017 230.764 205.919 233.979C204.741 237.453 164.109 288.428 164.109 288.428Z" fill="#37474F"/>
<path d="M160.787 293.393L165.198 285.07L197.812 313.674L191.402 319.3L160.787 293.393Z" fill="#455A64"/>
<path d="M198.455 306.69C193.607 302.002 174.67 286.963 172.313 285.731C172.26 285.731 172.188 285.793 172.233 285.838C173.938 287.874 190.089 301.1 198.33 306.842C198.419 306.905 198.535 306.762 198.455 306.69Z" fill="#263238"/>
<path d="M251.819 142.629C251.318 142.476 250.808 142.357 250.292 142.271C249.743 142.122 249.211 141.918 248.703 141.664C247.639 141.127 246.661 140.435 245.801 139.61C244.832 138.576 244.074 137.362 243.569 136.038C243.239 135.279 241.703 131.242 241.685 131.207C241.667 131.171 241.533 131.207 241.551 131.269C241.658 131.832 242.712 135.324 243.024 136.19C243.495 137.729 244.286 139.15 245.346 140.36C246.254 141.298 247.349 142.034 248.56 142.522C249.113 142.756 249.696 142.912 250.292 142.986C250.813 143.109 251.359 143.078 251.863 142.897C251.926 142.834 251.872 142.656 251.819 142.629Z" fill="#263238"/>
<path d="M218.499 128.867L217.704 149.702L216.811 170.537L214.811 212.197C214.436 219.136 214.061 226.075 213.624 233.014C213.624 233.907 213.508 234.8 213.419 235.693C213.415 235.831 213.388 235.967 213.338 236.095C213.289 236.209 213.232 236.319 213.169 236.426C213.061 236.631 212.936 236.819 212.82 237.006C212.579 237.381 212.329 237.738 212.079 238.096C211.07 239.524 210.026 240.918 208.972 242.302C206.865 245.07 204.705 247.794 202.544 250.518C198.211 255.96 193.848 261.371 189.455 266.753L176.17 282.828L189.125 266.486C193.437 261.038 197.759 255.59 202.017 250.107C204.154 247.368 206.27 244.612 208.365 241.837C209.41 240.453 210.445 239.06 211.436 237.649C211.678 237.292 211.928 236.935 212.151 236.577C212.374 236.22 212.66 235.863 212.633 235.559C212.704 234.72 212.776 233.88 212.82 233.005C213.231 226.066 213.57 219.127 213.927 212.188L216.106 170.501L217.249 149.684L218.499 128.867Z" fill="#263238"/>
<path d="M248.354 240.793C248.078 243.347 247.828 245.258 247.605 246.32C246.569 251.322 230.257 272.219 216.16 289.598L206.49 228.772C208.213 207.187 212.285 127.027 212.285 127.027H231.034L248.354 240.793Z" fill="#263238"/>
<path d="M301.459 358.853C299.477 359.952 238.873 370.963 236.284 369.909C235.302 369.534 233.177 360.791 230.927 350.155L230.864 349.825C230.391 347.637 224.963 310.414 224.963 310.414L261.265 303.725L269.88 342.287L269.987 342.948C269.987 342.948 295.067 349.11 297.781 350.566C300.495 352.022 303.45 357.719 301.459 358.853Z" fill="#FFC4C0"/>
<path d="M229.989 345.565C230.284 347.003 230.579 348.405 230.882 349.78L230.945 350.119C233.203 360.747 235.328 369.49 236.301 369.865C238.873 370.919 299.477 359.907 301.477 358.809C303.477 357.71 300.486 351.968 297.799 350.521C295.111 349.075 270.005 342.913 270.005 342.913L269.898 342.243L269.246 338.09L229.989 345.565Z" fill="#EBEBEB"/>
<path d="M301.995 358.853C299.986 359.952 238.846 370.847 236.257 369.793C235.266 369.4 233.168 360.586 230.9 349.86L270.3 342.716C270.3 342.716 295.576 349.021 298.29 350.486C301.004 351.95 304.004 357.755 301.995 358.853Z" fill="#F66E3C"/>
<path d="M300.682 356.558C290.388 358.13 249.024 365.489 238.962 367.802C238.882 367.802 238.891 367.873 238.962 367.864C249.194 366.525 290.504 358.862 300.691 356.728C300.923 356.683 300.923 356.523 300.682 356.558Z" fill="#263238"/>
<path d="M293.986 348.976C292.843 349.148 291.748 349.553 290.769 350.168C289.791 350.783 288.95 351.593 288.299 352.549C287.127 354.271 286.657 356.376 286.987 358.434C286.987 358.487 287.112 358.434 287.112 358.434C287.096 356.342 287.761 354.301 289.006 352.619C290.251 350.938 292.008 349.706 294.013 349.11C294.026 349.103 294.037 349.092 294.044 349.078C294.05 349.064 294.052 349.048 294.049 349.033C294.046 349.018 294.038 349.005 294.027 348.995C294.016 348.984 294.001 348.978 293.986 348.976Z" fill="#263238"/>
<path d="M274.478 343.02C270.362 343.698 265.863 345.994 263.916 349.798C263.836 349.95 264.05 350.057 264.157 349.968C267.411 347.447 270.925 345.283 274.639 343.511C274.7 343.486 274.749 343.44 274.777 343.38C274.805 343.32 274.809 343.253 274.788 343.19C274.768 343.128 274.724 343.075 274.667 343.044C274.609 343.012 274.542 343.004 274.478 343.02Z" fill="#263238"/>
<path d="M277.862 343.672C273.746 344.35 269.255 346.645 267.3 350.459C267.229 350.602 267.434 350.709 267.55 350.62C270.8 348.099 274.311 345.935 278.023 344.163C278.084 344.138 278.133 344.091 278.161 344.032C278.189 343.972 278.193 343.904 278.172 343.842C278.152 343.78 278.108 343.727 278.051 343.696C277.993 343.664 277.926 343.655 277.862 343.672Z" fill="#263238"/>
<path d="M281.282 344.359C277.175 345.038 272.675 347.333 270.72 351.146C270.648 351.289 270.853 351.396 270.97 351.316C274.215 348.789 277.727 346.624 281.442 344.859C281.496 344.829 281.538 344.781 281.561 344.724C281.584 344.666 281.586 344.602 281.567 344.543C281.548 344.485 281.509 344.434 281.457 344.4C281.405 344.367 281.343 344.352 281.282 344.359Z" fill="#263238"/>
<path d="M284.638 345.029C280.523 345.708 276.023 348.003 274.076 351.816C273.996 351.959 274.21 352.066 274.318 351.986C277.569 349.462 281.083 347.298 284.799 345.529C284.853 345.499 284.895 345.451 284.918 345.394C284.94 345.336 284.942 345.272 284.924 345.213C284.905 345.154 284.866 345.104 284.814 345.07C284.762 345.037 284.7 345.022 284.638 345.029Z" fill="#263238"/>
<path d="M239.846 357.594C235.239 358.434 236.534 365.578 241.141 364.739C245.747 363.899 244.453 356.764 239.846 357.594Z" fill="white"/>
<path d="M276.96 331.285C274.576 329.928 272.255 332.08 271.3 334.098C269.713 337.589 269.069 341.435 269.434 345.252C269.436 345.27 269.441 345.286 269.45 345.301C269.459 345.316 269.472 345.328 269.486 345.338C269.501 345.347 269.517 345.353 269.534 345.356C269.552 345.358 269.569 345.356 269.586 345.351C269.616 345.424 269.663 345.49 269.724 345.541C269.784 345.593 269.856 345.63 269.933 345.649C270.011 345.668 270.091 345.669 270.169 345.651C270.246 345.634 270.319 345.598 270.38 345.547C272.943 343.011 275.996 340.609 277.701 337.358C278.692 335.456 279.21 332.562 276.96 331.285ZM273.478 340.903C272.246 342.18 270.96 343.395 269.782 344.717C270.082 342.533 270.493 340.366 271.014 338.224C271.28 337.194 271.614 336.183 272.014 335.197C272.666 333.679 276.085 329.535 277.282 333.92C277.951 336.34 274.942 339.376 273.478 340.903Z" fill="#263238"/>
<path d="M259.515 348.592C263.184 348.503 266.657 346.806 270.104 345.663C270.176 345.63 270.241 345.581 270.291 345.518C270.341 345.456 270.376 345.383 270.392 345.304C270.409 345.226 270.407 345.145 270.386 345.068C270.365 344.99 270.327 344.919 270.273 344.859C270.318 344.806 270.336 344.725 270.273 344.681C267.016 342.658 263.284 341.528 259.452 341.403C257.22 341.403 254.265 342.502 254.426 345.234C254.551 347.824 257.372 348.646 259.515 348.592ZM256.622 346.699C253.22 343.672 258.452 342.448 260.095 342.537C261.16 342.611 262.219 342.757 263.265 342.975C265.412 343.462 267.534 344.059 269.621 344.761C267.916 345.234 266.256 345.851 264.568 346.386C262.532 347.012 258.497 348.369 256.622 346.699Z" fill="#263238"/>
<path d="M242.444 127.027C242.444 127.027 241.453 143.102 237.016 154.604C237.016 154.604 230.605 158.596 229.936 159.23L268.077 331.169L228.963 338.778C228.963 338.778 213.597 255.492 212.285 249.786C210.187 240.623 193.536 162.687 192.839 158.257C191.304 148.996 199.848 127.063 199.848 127.063L242.444 127.027Z" fill="#37474F"/>
<path d="M264.086 322.542C253.327 324.159 232.766 328.517 230.23 329.57C230.177 329.57 230.23 329.704 230.23 329.704C232.971 329.66 258.033 324.685 264.104 322.739C264.13 322.736 264.154 322.724 264.171 322.704C264.187 322.683 264.195 322.658 264.193 322.631C264.191 322.605 264.178 322.581 264.158 322.565C264.138 322.548 264.112 322.54 264.086 322.542Z" fill="#263238"/>
<path d="M204.66 142.638C205.446 142.459 206.285 142.513 207.08 142.414C209.518 142.12 211.873 141.343 214.008 140.128C215.357 139.276 216.469 138.096 217.24 136.699C217.695 135.967 219.775 132.001 219.802 131.975C219.829 131.948 220.043 131.975 220.025 132.055C219.909 132.609 218.543 136.047 218.133 136.904C217.424 138.532 216.266 139.923 214.794 140.914C212.475 142.295 209.84 143.054 207.142 143.12C206.293 143.195 205.437 143.117 204.615 142.888C204.499 142.834 204.553 142.656 204.66 142.638Z" fill="#263238"/>
<path d="M237.944 154.176C234.376 155.432 230.925 157.001 227.632 158.864C227.604 158.876 227.581 158.899 227.57 158.927C227.558 158.956 227.558 158.988 227.57 159.016C227.582 159.044 227.604 159.067 227.633 159.079C227.661 159.09 227.693 159.09 227.722 159.079C231.195 157.623 234.739 156.23 238.123 154.613C238.181 154.59 238.227 154.544 238.251 154.486C238.276 154.428 238.276 154.363 238.252 154.305C238.229 154.247 238.183 154.201 238.125 154.177C238.067 154.152 238.002 154.152 237.944 154.176Z" fill="#263238"/>
<path d="M239.257 130.439C239.257 130.314 239.042 130.287 239.042 130.439C239.008 134.3 238.779 138.157 238.355 141.995C238.176 143.781 236.659 153.604 233.57 152.863C233.052 152.738 232.793 152.229 232.721 151.443C232.744 150.426 232.89 149.415 233.159 148.434C233.516 146.371 233.811 144.308 234.007 142.182C234.406 138.323 234.406 134.432 234.007 130.573C234.007 130.547 233.997 130.522 233.978 130.503C233.96 130.485 233.935 130.474 233.909 130.474C233.883 130.474 233.858 130.485 233.839 130.503C233.821 130.522 233.811 130.547 233.811 130.573C233.854 135.951 233.49 141.324 232.721 146.647C232.311 149.21 230.989 153.051 233.659 153.47C236.328 153.89 238.212 147.451 238.56 145.692C239.453 140.659 239.687 135.532 239.257 130.439Z" fill="#263238"/>
<path d="M233.65 153.113C233.368 153.776 233.13 154.456 232.936 155.149C232.734 155.686 232.631 156.255 232.632 156.828C232.632 156.935 232.784 156.944 232.846 156.873C233.172 156.372 233.419 155.824 233.578 155.247C233.82 154.613 234.078 153.988 234.302 153.354C234.327 153.269 234.319 153.178 234.279 153.099C234.24 153.02 234.172 152.959 234.089 152.928C234.006 152.898 233.914 152.9 233.833 152.934C233.751 152.968 233.686 153.032 233.65 153.113Z" fill="#263238"/>
<path d="M203.053 127.027C201.991 131.108 200.982 135.207 200.062 139.324C199.142 143.441 198.276 147.576 197.759 151.756L197.616 153.318C197.571 153.836 197.616 154.354 197.562 154.872L198.026 157.971L199.205 164.223L201.723 176.627L212.061 226.191L222.418 275.755L227.552 300.546L232.623 325.355L227.123 300.636L221.766 275.898L211.195 226.334C207.776 209.804 204.321 193.291 201.053 176.725L198.66 164.294L197.535 158.043L197.098 154.881C197.12 153.805 197.206 152.732 197.357 151.666C197.946 147.469 198.892 143.352 199.875 139.244C200.857 135.136 201.919 131.126 203.053 127.027Z" fill="#263238"/>
<path d="M229.516 342.162L225.641 333.571L268.229 325.319L268.746 333.839L229.516 342.162Z" fill="#455A64"/>
<path d="M257.408 65.9962C258.97 69.9792 261.193 73.605 262.434 77.7309C263.648 81.5257 264.005 85.5428 263.479 89.4923C261.265 103.942 242.453 112.613 229.239 108.121C222.927 105.978 217.427 100.852 215.749 94.2701C213.695 86.2327 217.999 78.4632 220.606 71.1045C222.05 66.982 222.766 62.6395 222.722 58.2714C222.722 54.4402 222.499 50.5554 223.266 46.7778C223.82 44.0987 225.659 36.2577 235.578 33.1231C242.721 30.8816 249.908 34.7753 253.229 41.5356C257.086 49.4034 254.327 58.0927 257.408 65.9962Z" fill="#263238"/>
<path d="M223.49 67.1751C220.409 73.7658 216.347 80.4994 215.186 87.7688C214.204 93.8058 215.829 100.325 221.079 103.915C221.124 103.915 221.177 103.915 221.133 103.844C215.615 99.5749 214.936 92.2341 216.481 85.8398C218.061 79.3384 221.838 73.6765 223.802 67.3091C223.856 67.1037 223.579 66.9697 223.49 67.1751Z" fill="#263238"/>
<path d="M222.097 66.8268C219.767 75.4715 212.651 82.2855 212.195 91.4839C212.195 91.591 212.356 91.6178 212.365 91.4839C212.963 82.2944 220.874 75.7751 222.266 66.8268C222.261 66.8089 222.249 66.7934 222.234 66.7823C222.219 66.7713 222.2 66.7654 222.182 66.7654C222.163 66.7654 222.144 66.7713 222.129 66.7823C222.114 66.7934 222.103 66.8089 222.097 66.8268Z" fill="#263238"/>
<path d="M257.908 65.8534C256.424 62.6499 255.517 59.2094 255.229 55.6905C255.229 55.5119 254.917 55.494 254.908 55.6905C254.077 68.3896 268.603 77.9006 264.729 91.0284C264.729 91.1177 264.836 91.1802 264.871 91.082C266.729 85.6701 265.282 80.2582 262.854 75.2661C261.282 72.069 259.407 69.0594 257.908 65.8534Z" fill="#263238"/>
<path d="M254.97 53.8061C254.97 53.565 254.586 53.6364 254.604 53.8686C254.949 58.6203 256.484 63.2087 259.068 67.2108C260.327 69.1844 261.881 70.9526 263.104 72.962C264.443 75.15 265.479 77.5076 266.604 79.8117C266.604 79.8742 266.711 79.8117 266.693 79.8117C265.229 75.4357 262.934 71.9618 260.309 68.202C257.363 63.9207 255.529 58.9735 254.97 53.8061Z" fill="#263238"/>
<path d="M239.766 87.733C243.132 98.4495 255.238 132.984 265.943 136.181C272.97 138.279 301.281 141.137 308.138 136.181C310.816 134.234 309.146 110.524 305.236 111.05C301.325 111.577 277.942 112.837 275.166 111.801C272.389 110.765 252.979 84.5894 245.498 77.8648C232.587 66.3087 237.944 82.0085 239.766 87.733Z" fill="#FFC4C0"/>
<path d="M262.273 94.6005L246.042 111.881C246.042 111.881 237.534 87.2418 237.016 79.3294C236.489 70.3989 241.176 72.0689 247.604 77.6773C254.033 83.2856 262.273 94.6005 262.273 94.6005Z" fill="#F66E3C"/>
<path d="M258.961 92.2698C258.309 92.7877 253.202 98.1371 252.122 99.3159C251.042 100.495 246.56 105.308 245.542 106.63C245.497 106.684 245.542 106.764 245.622 106.71C246.863 105.612 251.399 100.781 252.524 99.566C253.649 98.3514 258.586 92.9842 259.05 92.3144C259.059 92.2876 258.961 92.234 258.961 92.2698Z" fill="#263238"/>
<path opacity="0.1" d="M259.997 97.0118L246.042 111.881C246.042 111.881 237.534 87.2419 237.025 79.3295C236.694 73.7301 238.4 72.2833 241.292 73.3639C245.569 78.7133 253.908 89.1977 259.997 97.0118Z" fill="#151515"/>
<path d="M162.079 244.756L104.994 228.888L75.4723 335.153L132.556 351.02L162.079 244.756Z" fill="#F66E3C"/>
<g opacity="0.1">
<path d="M158.57 257.374L101.486 241.506L101.307 242.152L158.391 258.019L158.57 257.374Z" fill="#151515"/>
<path d="M155.38 268.853L98.2963 252.986L98.117 253.631L155.201 269.499L155.38 268.853Z" fill="#151515"/>
<path d="M150.849 279.679L93.972 263.678L93.7913 264.321L150.669 280.322L150.849 279.679Z" fill="#151515"/>
<path d="M147.647 291.101L90.77 275.1L90.5892 275.743L147.467 291.744L147.647 291.101Z" fill="#151515"/>
<path d="M145.814 303.3L88.7294 287.432L88.5501 288.078L145.634 303.945L145.814 303.3Z" fill="#151515"/>
<path d="M142.624 314.78L85.5394 298.912L85.3601 299.558L142.444 315.425L142.624 314.78Z" fill="#151515"/>
<path d="M139.434 326.268L82.3496 310.401L82.1703 311.046L139.254 326.914L139.434 326.268Z" fill="#151515"/>
<path d="M134.831 336.84L77.9537 320.839L77.7729 321.482L134.65 337.483L134.831 336.84Z" fill="#151515"/>
</g>
<path d="M135.782 237.421L131.378 236.198L101.874 342.468L106.279 343.691L135.782 237.421Z" fill="#263238"/>
<path d="M135.78 277.357L131.022 276.036L122.109 308.141L126.866 309.462L135.78 277.357Z" fill="#263238"/>
<path d="M134.797 343.055L121.084 339.242L113.396 345.672L132.592 351.004L134.797 343.055Z" fill="#263238"/>
<path d="M77.7196 327.186L91.4243 330.999L94.7009 340.484L75.5054 335.143L77.7196 327.186Z" fill="#263238"/>
<path d="M120.227 357.853L125.298 359.264L131.315 350.655L120.36 347.61L122.164 353.254L120.227 357.853Z" fill="#263238"/>
<path d="M114.718 359.434C114.332 360.818 114.365 362.285 114.813 363.65C115.261 365.015 116.103 366.216 117.234 367.102C118.365 367.988 119.733 368.518 121.165 368.626C122.597 368.733 124.029 368.414 125.28 367.707C126.53 367 127.543 365.938 128.19 364.656C128.837 363.373 129.089 361.927 128.914 360.501C128.739 359.075 128.145 357.733 127.207 356.645C126.27 355.557 125.03 354.772 123.646 354.388C121.793 353.875 119.812 354.118 118.139 355.064C116.465 356.01 115.235 357.582 114.718 359.434Z" fill="#37474F"/>
<path d="M117.896 360.318C117.687 361.074 117.706 361.874 117.951 362.619C118.196 363.364 118.657 364.019 119.274 364.502C119.892 364.985 120.639 365.274 121.42 365.332C122.202 365.391 122.983 365.216 123.666 364.831C124.348 364.445 124.901 363.866 125.255 363.166C125.608 362.466 125.746 361.677 125.651 360.899C125.556 360.12 125.233 359.388 124.722 358.793C124.211 358.199 123.535 357.769 122.78 357.559C121.767 357.279 120.684 357.412 119.768 357.929C118.853 358.446 118.18 359.305 117.896 360.318Z" fill="#DBDBDB"/>
<path d="M122.271 359.041C122.119 359.595 122.066 360.059 122.146 360.077C122.226 360.095 122.414 359.675 122.566 359.121C122.717 358.568 122.78 358.112 122.7 358.085C122.619 358.059 122.423 358.496 122.271 359.041Z" fill="#263238"/>
<path d="M123.762 360.131C123.262 360.407 122.869 360.693 122.932 360.765C122.994 360.836 123.414 360.675 123.914 360.39C124.414 360.104 124.807 359.827 124.735 359.756C124.664 359.684 124.253 359.845 123.762 360.131Z" fill="#263238"/>
<path d="M124.048 361.943C123.494 361.792 123.03 361.738 123.012 361.818C122.994 361.899 123.414 362.086 123.958 362.238C124.503 362.39 124.976 362.452 124.994 362.372C125.012 362.292 124.592 362.095 124.048 361.943Z" fill="#263238"/>
<path d="M122.959 363.435C122.682 362.935 122.396 362.542 122.316 362.604C122.236 362.667 122.414 363.087 122.691 363.587C122.968 364.087 123.262 364.48 123.334 364.408C123.405 364.337 123.253 363.926 122.959 363.435Z" fill="#263238"/>
<path d="M121.146 363.721C121.298 363.167 121.352 362.702 121.271 362.685C121.191 362.667 121.003 363.087 120.843 363.631C120.682 364.176 120.637 364.649 120.718 364.667C120.798 364.685 120.985 364.265 121.146 363.721Z" fill="#263238"/>
<path d="M119.682 362.631C120.182 362.354 120.575 362.068 120.503 361.988C120.432 361.908 120.03 362.086 119.53 362.363C119.03 362.64 118.637 362.935 118.709 363.006C118.78 363.077 119.155 362.917 119.682 362.631Z" fill="#263238"/>
<path d="M119.369 360.818C119.923 360.97 120.387 361.023 120.405 360.943C120.423 360.863 120.003 360.675 119.45 360.514C118.896 360.354 118.441 360.309 118.414 360.39C118.387 360.47 118.789 360.64 119.369 360.818Z" fill="#263238"/>
<path d="M120.459 359.327C120.735 359.827 121.021 360.22 121.092 360.148C121.164 360.077 121.003 359.675 120.717 359.175C120.432 358.675 120.155 358.282 120.084 358.353C120.012 358.425 120.173 358.853 120.459 359.327Z" fill="#263238"/>
<path d="M82.5676 347.387L77.4964 345.976L76.7821 335.5L87.737 338.546L83.2729 342.448L82.5676 347.387Z" fill="#263238"/>
<path d="M86.4691 351.584C86.0859 352.969 85.3007 354.208 84.2128 355.146C83.1249 356.084 81.7833 356.678 80.3578 356.853C78.9322 357.028 77.4868 356.776 76.2045 356.129C74.9221 355.482 73.8605 354.469 73.154 353.218C72.4475 351.968 72.1279 350.535 72.2355 349.103C72.3432 347.67 72.8733 346.302 73.7587 345.17C74.6442 344.039 75.8453 343.196 77.2099 342.748C78.5745 342.3 80.0413 342.267 81.4247 342.653C82.3423 342.908 83.2006 343.342 83.9508 343.928C84.7009 344.515 85.3281 345.244 85.7965 346.073C86.265 346.903 86.5655 347.816 86.6809 348.762C86.7963 349.707 86.7243 350.666 86.4691 351.584Z" fill="#37474F"/>
<path d="M83.2997 350.709C83.0894 351.464 82.6599 352.14 82.0655 352.651C81.4711 353.163 80.7386 353.486 79.9605 353.581C79.1824 353.676 78.3937 353.538 77.694 353.184C76.9943 352.831 76.4151 352.278 76.0296 351.595C75.6441 350.912 75.4695 350.131 75.528 349.349C75.5865 348.567 75.8755 347.82 76.3583 347.202C76.8411 346.585 77.4962 346.124 78.2407 345.879C78.9851 345.633 79.7856 345.614 80.5409 345.824C81.0429 345.963 81.5125 346.2 81.9229 346.521C82.3332 346.842 82.6763 347.241 82.9325 347.695C83.1888 348.148 83.3531 348.648 83.4161 349.165C83.4791 349.682 83.4395 350.207 83.2997 350.709Z" fill="#DBDBDB"/>
<path d="M80.2015 347.351C80.0498 347.905 79.8623 348.324 79.773 348.307C79.6837 348.289 79.773 347.815 79.9069 347.271C80.0408 346.726 80.2462 346.297 80.3265 346.315C80.4069 346.333 80.398 346.806 80.2015 347.351Z" fill="#263238"/>
<path d="M78.3713 347.512C78.6481 348.012 78.8177 348.449 78.7463 348.485C78.6749 348.521 78.3802 348.164 78.1035 347.664C77.8267 347.163 77.6571 346.771 77.7285 346.69C77.7999 346.61 78.0856 347.021 78.3713 347.512Z" fill="#263238"/>
<path d="M77.1839 348.923C77.7375 349.074 78.166 349.271 78.1392 349.351C78.1125 349.432 77.6571 349.351 77.1036 349.217C76.55 349.083 76.1304 348.878 76.1483 348.798C76.1661 348.717 76.6393 348.771 77.1839 348.923Z" fill="#263238"/>
<path d="M77.3445 350.753C77.8445 350.477 78.2373 350.307 78.3266 350.387C78.4159 350.468 77.9962 350.745 77.4963 351.021C76.9963 351.298 76.6035 351.477 76.5231 351.396C76.4428 351.316 76.8267 351.039 77.3445 350.753Z" fill="#263238"/>
<path d="M78.7554 351.941C78.9161 351.388 79.1036 350.968 79.184 350.986C79.2643 351.004 79.184 351.477 79.059 352.022C78.934 352.566 78.7108 352.995 78.6304 352.977C78.5501 352.959 78.6126 352.486 78.7554 351.941Z" fill="#263238"/>
<path d="M80.5944 351.78C80.3087 351.28 80.148 350.843 80.2194 350.807C80.2908 350.771 80.5765 351.129 80.8622 351.629C81.1479 352.129 81.3086 352.522 81.2372 352.602C81.1658 352.682 80.8712 352.272 80.5944 351.78Z" fill="#263238"/>
<path d="M81.773 350.369C81.2284 350.218 80.7998 350.021 80.8177 349.941C80.8355 349.86 81.3087 349.941 81.8533 350.075C82.398 350.209 82.8354 350.414 82.8087 350.494C82.7819 350.575 82.3265 350.521 81.773 350.369Z" fill="#263238"/>
<path d="M81.6124 348.53C81.1124 348.816 80.7195 348.985 80.6392 348.905C80.5588 348.824 80.9606 348.548 81.4606 348.271C81.9606 347.994 82.3534 347.815 82.4337 347.896C82.5141 347.976 82.1034 348.253 81.6124 348.53Z" fill="#263238"/>
<path d="M147.997 235.646L138.465 232.999L137.137 237.783L146.668 240.431L147.997 235.646Z" fill="#263238"/>
<path d="M182.601 161.632L178.266 160.427L155.344 242.935L159.679 244.14L182.601 161.632Z" fill="#C7C7C7"/>
<path d="M183.851 160.679L177.683 158.964L174.795 169.359L180.963 171.073L183.851 160.679Z" fill="#263238"/>
<path d="M251.408 111.238L249.944 127.027H199.848C199.848 127.027 214.133 87.5903 228.329 74.2749C233.971 68.9791 239.212 70.5509 243.221 74.6053C244.114 75.4984 255.149 93.7344 256.077 100.236C256.836 105.576 251.408 111.238 251.408 111.238Z" fill="#F66E3C"/>
<path d="M244.435 108.246C241.91 108.309 239.396 108.608 236.927 109.139C235.686 109.425 234.471 109.791 233.248 110.184C232.641 110.381 232.025 110.55 231.418 110.72C230.79 110.914 230.137 111.013 229.48 111.015C229.418 111.015 229.409 111.122 229.48 111.122C230.086 111.217 230.698 111.259 231.311 111.247C231.912 111.207 232.509 111.117 233.096 110.979C234.346 110.702 235.596 110.345 236.855 110.086C239.382 109.497 241.908 108.898 244.453 108.541C244.551 108.496 244.551 108.237 244.435 108.246Z" fill="#263238"/>
<path d="M250.292 111.631C248.277 111.187 246.234 110.889 244.176 110.738C243.147 110.68 242.116 110.68 241.087 110.738C240.596 110.738 240.096 110.791 239.605 110.827C239.114 110.863 238.516 110.997 237.971 111.024C237.918 111.024 237.909 111.14 237.971 111.14C238.489 111.14 238.998 111.238 239.507 111.265L241.042 111.354C242.069 111.408 243.096 111.488 244.123 111.533C246.185 111.631 248.23 111.747 250.283 111.935C250.381 111.863 250.39 111.658 250.292 111.631Z" fill="#263238"/>
<g opacity="0.1">
<path d="M250.488 121.16L250.444 121.588C249.131 121.714 247.765 121.767 246.48 121.767C243.522 121.79 240.567 121.584 237.641 121.151C236.382 120.954 235.132 120.713 233.891 120.436L232.516 120.106C231.337 119.829 230.159 119.517 228.989 119.213C228.097 118.972 227.204 118.74 226.356 118.516L225.132 118.204C223.561 117.811 221.981 117.463 220.392 117.195C218.948 116.935 217.49 116.768 216.026 116.695C214.563 116.653 213.099 116.701 211.642 116.837C208.865 117.088 206.098 117.579 203.339 118.07C203.428 117.864 203.517 117.65 203.598 117.427C206.255 116.913 208.937 116.535 211.633 116.293C213.117 116.163 214.609 116.136 216.097 116.212C217.578 116.314 219.052 116.511 220.508 116.802C222.293 117.123 224.034 117.552 225.784 118.016L226.954 118.338L229.105 118.954C230.391 119.329 231.695 119.677 232.998 119.981L234.444 120.302C235.534 120.526 236.623 120.722 237.721 120.874C240.638 121.267 243.581 121.437 246.524 121.383C247.819 121.383 249.14 121.303 250.488 121.16Z" fill="#151515"/>
<path d="M250.926 116.364V116.614L249.988 116.471C247.072 116.071 244.129 115.898 241.185 115.953C238.249 116.003 235.324 116.341 232.453 116.963C230.596 117.347 228.766 117.856 226.927 118.356L226.373 118.516C225.552 118.74 224.731 118.972 223.9 119.186C218.183 120.833 212.21 121.402 206.285 120.865C205.019 120.722 203.761 120.51 202.517 120.231L202.776 119.588C203.964 119.838 205.16 120.044 206.348 120.178C212.197 120.68 218.09 120.135 223.748 118.57L225.159 118.204L225.766 118.034C227.945 117.463 230.132 116.882 232.355 116.453C235.266 115.871 238.226 115.572 241.194 115.56C244.155 115.541 247.113 115.75 250.042 116.186L250.926 116.364Z" fill="#151515"/>
<path d="M250.712 118.713L250.649 119.409C250.274 119.347 249.899 119.302 249.524 119.258C244.458 118.807 239.353 119.166 234.4 120.32C234.228 120.346 234.057 120.385 233.891 120.436C233.302 120.561 232.712 120.713 232.105 120.865C229.257 121.597 226.409 122.419 223.499 122.982C220.588 123.564 217.628 123.863 214.66 123.875C211.699 123.894 208.741 123.685 205.812 123.25C204.401 123.035 202.991 122.749 201.598 122.428C201.618 122.357 201.645 122.288 201.678 122.223C203.062 122.535 204.455 122.794 205.856 122.991C208.77 123.391 211.71 123.564 214.651 123.509C217.59 123.46 220.518 123.122 223.391 122.499C226.266 121.901 229.079 121.026 231.945 120.276L232.498 120.133C232.641 120.088 232.788 120.052 232.936 120.026C238.357 118.561 243.996 118.077 249.587 118.597L250.712 118.713Z" fill="#151515"/>
</g>
<path d="M226.972 82.9017C222.606 89.153 204.205 115.346 203.669 116.712C203.133 118.079 193.705 145.683 192.723 150.148C192.036 153.301 170.358 142.825 171.126 140.119C172.912 133.779 177.822 114.766 182.554 107.871C188.723 98.8962 214.124 77.5077 221.838 74.4534C229.552 71.3992 234.141 72.5959 226.972 82.9017Z" fill="#FFC4C0"/>
<path d="M180.393 160.418C181.75 159.606 182.179 160.311 181.188 162.937C180.197 165.562 173.992 175.127 177.501 177.002C181.009 178.877 189.563 165.276 190.893 160.775C192.223 156.274 192.804 148.514 192.804 148.514C190.652 150.827 184.795 155.935 180.393 160.418Z" fill="#FFC4C0"/>
<path d="M174.144 134.314C168.206 141.066 160.394 149.103 158.475 159.061C158.234 160.163 158.372 161.315 158.868 162.329C157.975 166.794 159.76 168.581 159.76 168.581C160.153 172.992 162.269 174.555 162.269 174.555C162.269 174.555 161.225 179.788 164.278 180.949C167.706 182.253 168.501 174.698 171.501 170.733C178.367 161.802 190.634 150.925 192.866 148.541L174.144 134.314Z" fill="#FFC4C0"/>
<path d="M172.063 156.248C170.02 158.849 168.159 161.588 166.492 164.446C164.863 167.681 163.479 171.033 162.35 174.475C162.344 174.493 162.332 174.508 162.317 174.519C162.302 174.53 162.284 174.536 162.265 174.536C162.246 174.536 162.228 174.53 162.212 174.519C162.197 174.508 162.186 174.493 162.18 174.475C163.69 167.581 167.066 161.235 171.938 156.132C172.054 156.042 172.162 156.132 172.063 156.248Z" fill="#263238"/>
<path d="M164.617 148.71C161.778 153.443 160.591 156.748 158.885 162.311C158.885 162.311 158.814 162.311 158.823 162.311C160.109 155.828 161.305 153.613 164.466 148.603C164.573 148.425 164.724 148.532 164.617 148.71Z" fill="#263238"/>
<path d="M199.268 129.608C199.544 128.304 199.901 127.027 200.259 125.759C200.616 124.491 201.026 123.232 201.437 121.973C201.848 120.713 202.33 119.472 202.803 118.24C203.045 117.618 203.344 117.02 203.696 116.454C204.098 115.918 204.473 115.373 204.883 114.855C204.598 115.453 204.276 116.034 203.991 116.641C203.71 117.213 203.486 117.811 203.321 118.427C202.928 119.686 202.517 120.937 202.098 122.196C201.678 123.455 201.25 124.696 200.776 125.929C200.303 127.161 199.812 128.394 199.268 129.608Z" fill="#263238"/>
<path d="M215.535 104.335L192.795 92.3144C192.795 92.3144 216.106 76.2931 224.293 73.5604C233.498 70.4347 233.079 75.8287 229.061 84.1609C225.043 92.493 215.535 104.335 215.535 104.335Z" fill="#F66E3C"/>
<path d="M216.999 100.2C216.267 99.6642 209.214 95.8598 207.66 95.0739C206.107 94.288 199.803 90.9748 198.134 90.2872C198.119 90.2777 198.102 90.2743 198.085 90.2776C198.069 90.281 198.054 90.2908 198.044 90.305C198.035 90.3192 198.031 90.3366 198.035 90.3534C198.038 90.3701 198.048 90.3849 198.062 90.3943C199.571 91.3767 205.928 94.7256 207.49 95.574C209.053 96.4224 216.115 100.039 216.945 100.307C216.999 100.334 217.052 100.236 216.999 100.2Z" fill="#263238"/>
<path d="M212.588 102.808C213.615 103.245 214.624 103.701 215.615 104.192H215.383L221.07 96.4045C222.954 93.7968 224.847 91.207 226.641 88.5189C225.93 89.9689 225.14 91.3791 224.275 92.743C223.436 94.1273 222.49 95.4222 221.597 96.7707C220.704 98.1192 219.704 99.3784 218.731 100.664C217.758 101.95 216.731 103.192 215.695 104.433L215.588 104.558L215.463 104.487C214.481 103.969 213.535 103.442 212.588 102.808Z" fill="#263238"/>
<path d="M222.972 94.2969C223.415 93.714 223.908 93.1702 224.445 92.6716C224.976 92.1696 225.543 91.707 226.141 91.2874C225.958 91.604 225.746 91.9029 225.507 92.1804C225.271 92.4633 225.017 92.7317 224.748 92.9841C224.219 93.5015 223.622 93.9432 222.972 94.2969Z" fill="#263238"/>
<path d="M231.802 73.614C232.212 74.507 237.989 79.9635 242.373 78.9722C243.801 78.6418 242.31 70.7741 242.31 70.7741V70.1668L242.623 61.6828L231.909 57.3158L230.373 56.7621C230.373 56.7621 230.445 59.0841 230.552 61.9865C230.552 62.1204 230.552 62.2544 230.552 62.3973C230.543 62.5549 230.543 62.7129 230.552 62.8706C230.552 63.2993 230.552 63.7636 230.596 64.1834C230.641 64.6031 230.596 64.8442 230.65 65.1925C230.704 65.5408 230.703 65.8891 230.721 66.2463C230.916 68.7236 231.277 71.185 231.802 73.614Z" fill="#FFC4C0"/>
<path d="M242.64 61.6383L242.417 67.6574C237.953 69.4435 232.471 68.354 230.954 67.9968C230.891 67.4074 230.837 66.8001 230.784 66.2107C230.784 65.8534 230.739 65.5141 230.721 65.1569C230.704 64.7997 230.677 64.4782 230.659 64.1477C230.641 63.8173 230.659 63.2547 230.614 62.8349C230.614 62.6831 230.614 62.5224 230.614 62.3616C230.614 62.2009 230.614 62.0848 230.614 61.9508C230.498 59.0484 230.427 56.7265 230.427 56.7265L231.962 57.2802L242.64 61.6383Z" fill="#263238"/>
<path d="M221.597 45.1168C214.338 58.1285 221.311 63.9423 224.123 65.5051C226.668 66.925 235.525 71.426 244.087 59.2538C252.649 47.0815 248.89 39.6067 243.194 36.0345C237.498 32.4623 228.846 32.1051 221.597 45.1168Z" fill="#FFC4C0"/>
<path d="M226.043 43.4825C226.364 43.6025 226.692 43.7039 227.025 43.7862C227.356 43.9436 227.731 43.9845 228.088 43.9023C228.196 43.8575 228.285 43.7775 228.342 43.6754C228.399 43.5733 228.419 43.4549 228.4 43.3397C228.331 43.1169 228.203 42.9168 228.03 42.7598C227.858 42.6028 227.646 42.4947 227.418 42.4466C226.97 42.2722 226.473 42.2722 226.025 42.4466C225.927 42.4943 225.845 42.5689 225.788 42.6616C225.732 42.7544 225.702 42.8615 225.704 42.9703C225.706 43.0791 225.739 43.1851 225.799 43.2758C225.859 43.3666 225.944 43.4383 226.043 43.4825Z" fill="#263238"/>
<path d="M234.569 48.3585C234.298 48.1466 234.039 47.92 233.793 47.6797C233.486 47.4803 233.254 47.1853 233.132 46.8403C233.116 46.7253 233.138 46.6083 233.194 46.5068C233.251 46.4054 233.338 46.3249 233.444 46.2777C233.671 46.2196 233.909 46.222 234.135 46.2847C234.361 46.3474 234.566 46.4681 234.73 46.6349C235.111 46.9265 235.369 47.3502 235.453 47.8226C235.469 47.9316 235.452 48.0426 235.404 48.142C235.357 48.2414 235.282 48.3247 235.188 48.3817C235.094 48.4387 234.985 48.4669 234.875 48.4628C234.765 48.4587 234.659 48.4224 234.569 48.3585Z" fill="#263238"/>
<path d="M230.998 50.6716C230.998 50.6716 231.043 50.752 230.998 50.7877C230.454 51.6808 229.98 52.7167 230.596 53.4669C229.704 52.8149 230.391 51.395 230.998 50.6716Z" fill="#263238"/>
<path d="M232.319 50.2161C233.784 50.9395 232.239 53.7883 230.873 53.1542C229.507 52.5202 231.087 49.6088 232.319 50.2161Z" fill="#263238"/>
<path d="M232.802 50.6715C232.971 50.9751 233.061 51.3948 233.346 51.5645C233.632 51.7342 234.105 51.627 234.489 51.4573C234.534 51.4573 234.543 51.4573 234.489 51.5199C234.203 52.0735 233.686 52.529 233.043 52.2879C232.784 52.1391 232.589 51.9003 232.495 51.617C232.401 51.3336 232.415 51.0257 232.534 50.7518C232.569 50.6625 232.739 50.5554 232.802 50.6715Z" fill="#263238"/>
<path d="M225.927 47.6799C225.927 47.6799 225.838 47.6799 225.82 47.6799C225.373 48.5729 224.713 49.5553 223.74 49.466C223.74 49.466 223.686 49.5106 223.74 49.5196C224.802 49.9125 225.668 48.6176 225.927 47.6799Z" fill="#263238"/>
<path d="M225.641 46.2867C224.257 45.3937 222.615 48.2425 223.9 49.0552C225.186 49.8678 226.82 47.0458 225.641 46.2867Z" fill="#263238"/>
<path d="M224.945 46.1617C224.632 46.1617 224.248 46.3314 223.972 46.1617C223.695 45.992 223.597 45.5634 223.57 45.1615C223.57 45.1615 223.57 45.1615 223.507 45.1615C223.186 45.6973 223.034 46.3671 223.507 46.769C223.981 47.1709 224.543 46.8762 224.981 46.4118C225.034 46.3493 225.034 46.1528 224.945 46.1617Z" fill="#263238"/>
<path d="M226.82 57.673C226.507 57.845 226.144 57.9019 225.793 57.8337C225.448 57.6695 225.143 57.4318 224.9 57.1371C224.9 57.1371 224.829 57.1371 224.838 57.1371C224.879 57.3763 224.984 57.6 225.141 57.7852C225.298 57.9704 225.502 58.1105 225.731 58.1909C225.94 58.2305 226.157 58.2076 226.354 58.1251C226.551 58.0425 226.719 57.9039 226.838 57.7266C226.963 57.7087 226.9 57.6551 226.82 57.673Z" fill="#263238"/>
<path d="M224.918 52.413C224.918 52.413 224.025 53.6364 223.65 54.2616C223.65 54.3151 223.757 54.4312 223.963 54.5563C224.445 54.9523 225.027 55.2069 225.645 55.2921C226.262 55.3772 226.892 55.2894 227.463 55.0385C227.534 55.0385 227.463 54.8956 227.418 54.9046C226.317 55.0106 225.211 54.7568 224.266 54.1812C224.32 53.9847 225.909 52.1361 225.82 52.0736C225.309 51.852 224.772 51.6959 224.222 51.6092C226.052 49.0015 228.293 46.7153 230.079 44.0897C230.094 44.0704 230.102 44.046 230.1 44.0214C230.098 43.9967 230.087 43.9736 230.069 43.9567C230.051 43.9398 230.027 43.9304 230.003 43.9302C229.978 43.93 229.954 43.9391 229.936 43.9558C227.467 46.3415 225.239 48.9649 223.284 51.7878C223.061 52.1361 224.606 52.3772 224.918 52.413Z" fill="#263238"/>
<path d="M224.632 54.6099C224.724 55.2228 224.973 55.8014 225.356 56.2888C225.569 56.5502 225.86 56.7377 226.186 56.8246C226.9 57.0032 227.231 56.4406 227.391 55.9316C227.468 55.6396 227.513 55.3401 227.525 55.0385C226.54 55.2137 225.525 55.0632 224.632 54.6099Z" fill="#263238"/>
<path d="M225.356 56.2888C225.569 56.5502 225.86 56.7377 226.186 56.8246C226.9 57.0032 227.231 56.4406 227.391 55.9316C227.061 55.7554 226.681 55.6949 226.312 55.7596C225.943 55.8244 225.606 56.0106 225.356 56.2888Z" fill="#FF9CBD"/>
<path d="M242.721 59.2627C239.98 57.6999 243.355 51.3235 243.355 51.3235C243.355 51.3235 242.087 49.8142 241.917 45.5812C241.917 45.5812 241.685 49.0284 242.882 51.1717C243.087 51.5289 234.159 45.3311 237.284 37.5884C235.432 39.0965 233.278 40.1901 230.968 40.7955C228.658 41.4009 226.245 41.5041 223.891 41.0981C223.65 41.0445 228.141 34.9361 230.373 34.177C231.668 33.728 233.015 33.4489 234.382 33.3464C238.4 32.8017 242.472 33.8567 245.721 36.2846C251.078 40.3569 251.479 48.5729 250.524 51.3235C248.658 56.7264 244.015 60.0039 242.721 59.2627Z" fill="#263238"/>
<path d="M242.498 51.1628C237.462 48.0729 235.185 42.5003 237.676 36.9901C237.739 36.8562 237.542 36.749 237.453 36.8651C233.784 41.8215 237.391 48.9659 242.489 51.2789C242.614 51.3325 242.614 51.2343 242.498 51.1628Z" fill="#263238"/>
<path d="M237.48 37.4098C237.48 37.4098 237.48 37.3473 237.435 37.4098C234.605 39.3834 230.605 43.4468 226.864 41.116C226.766 41.0534 226.659 41.1963 226.757 41.2588C230.15 43.7772 235.427 40.2676 237.48 37.4098Z" fill="#263238"/>
<path d="M241.462 59.0751C241.462 59.0751 246.328 56.1638 247.783 58.0927C249.238 60.0217 244.212 65.1568 241.605 64.9871C241.265 64.9885 240.928 64.9212 240.615 64.7891C240.302 64.6569 240.019 64.4628 239.783 64.2183C239.547 63.9738 239.363 63.6841 239.242 63.3665C239.121 63.0489 239.065 62.7101 239.078 62.3704L241.462 59.0751Z" fill="#FFC4C0"/>
<path d="M246.31 59.5306C246.355 59.5306 246.31 59.6021 246.31 59.5932C244.435 59.5306 242.944 60.6202 241.676 61.8794C241.84 61.7626 242.027 61.6827 242.224 61.645C242.422 61.6074 242.625 61.6129 242.82 61.6613C243.015 61.7097 243.197 61.7997 243.355 61.9252C243.512 62.0507 243.64 62.2087 243.73 62.3884C243.73 62.3884 243.685 62.4866 243.649 62.4509C243.41 62.2358 243.109 62.1005 242.789 62.0637C242.469 62.0269 242.146 62.0904 241.864 62.2455C241.394 62.4935 240.954 62.793 240.551 63.1386C240.408 63.2457 240.194 63.0582 240.319 62.9153C241.212 60.8792 244.051 58.7894 246.31 59.5306Z" fill="#263238"/>
<path d="M225.472 72.462C224.766 71.5689 229.739 71.5689 230.954 72.5334C232.168 73.4979 236.81 85.6255 234.418 101.031C232.025 116.436 201.58 128.447 200.419 126.107L202.651 119.454C203.812 118.257 223.766 111.417 226.365 101.87C228.668 93.4039 228.463 76.1056 225.472 72.462Z" fill="#263238"/>
<path d="M296.995 145.29L299.415 115.971L305.629 90.1889L287.576 91.7517L274.452 87.7241L260.345 90.5551L243.792 85.036L245.89 113.346L240.917 141.128L253.354 145.54L268.639 142.45L280.978 147.835L296.995 145.29Z" fill="#EBEBEB"/>
<path d="M280.978 147.835L287.576 91.7517L274.452 87.7241L268.639 142.45L280.978 147.835Z" fill="#DBDBDB"/>
<path d="M253.354 145.54L260.345 90.5551L243.792 85.036L245.89 113.346L240.917 141.128L253.354 145.54Z" fill="#DBDBDB"/>
<path d="M303.325 103.111C305.263 106.746 309.923 111.149 310.468 114.149C310.62 114.89 310.528 115.66 310.206 116.344C309.884 117.028 309.35 117.59 308.682 117.945C308.682 117.945 311.78 119.311 311.798 122.124C311.798 123.571 309.495 124.848 309.495 124.848C309.495 124.848 311.932 126.054 311.789 128.554C311.673 130.546 309.379 131.537 309.379 131.537C309.379 131.537 311.164 133.77 310.414 135.77C308.861 139.807 291.745 140.637 288.799 134.457C287.424 131.582 291.611 131.608 291.611 131.608C291.611 131.608 285.594 130.117 285.362 126.59C285.13 123.062 290.54 123.428 290.54 123.428C290.54 123.428 284.719 121.928 284.817 118.248C284.924 114.417 290.308 115.712 290.308 115.712C290.308 115.712 286.38 113.31 287.094 110.506C288.29 105.889 295.772 111.265 299.486 110.193L301.272 103.888L303.325 103.111Z" fill="#FFC4C0"/>
<path d="M307.013 108.345C305.477 104.772 309.789 100.003 308.798 96.3599C307.477 91.4213 302.093 96.5831 301.2 103.888L301.495 109.684L307.013 108.345Z" fill="#FFC4C0"/>
<path d="M309.021 131.743C309.033 131.743 309.045 131.747 309.053 131.756C309.061 131.764 309.066 131.775 309.066 131.787C309.066 131.799 309.061 131.81 309.053 131.819C309.045 131.827 309.033 131.832 309.021 131.832C303.242 133.56 297.073 133.488 291.335 131.626C291.156 131.564 291.183 131.242 291.397 131.278C297.218 132.288 303.155 132.444 309.021 131.743Z" fill="#263238"/>
<path d="M309.566 124.875C309.628 124.875 309.646 124.973 309.566 125C303.825 126.661 296.37 126.572 290.29 123.58C290.085 123.482 290.004 123.178 290.29 123.276C294.451 124.964 304.075 125.625 309.566 124.875Z" fill="#263238"/>
<path d="M289.888 115.355C295.826 117.989 302.013 118.463 308.432 118.034C308.521 118.034 308.521 118.15 308.432 118.177C305.352 119.24 301.227 119.07 298.022 118.704C295.046 118.395 292.203 117.314 289.772 115.569C289.701 115.489 289.763 115.292 289.888 115.355Z" fill="#263238"/>
<path d="M255.926 47.4745L257.122 37.7759C257.122 37.7759 251.256 31.9265 249.738 30.8906C248.221 29.8546 241.48 27.3184 241.48 27.3184L234.614 32.6766L255.926 47.4745Z" fill="#F66E3C"/>
<path d="M226.641 33.5787C226.641 33.5787 241.891 39.7496 256.774 55.3422L255.926 47.4745C255.926 47.4745 246.337 36.1417 234.614 32.6499L226.641 33.5787Z" fill="#F66E3C"/>
<path opacity="0.1" d="M226.641 33.5787C226.641 33.5787 241.891 39.7496 256.774 55.3422L255.926 47.4745C255.926 47.4745 246.337 36.1417 234.614 32.6499L226.641 33.5787Z" fill="#151515"/>
</svg>
